<?xml version="1.0" encoding="iso-8859-1"?>
<!-- Generator: Adobe Illustrator 19.0.0, SVG Export Plug-In . SVG Version: 6.00 Build 0)  -->
<svg xmlns="http://www.w3.org/2000/svg" xmlns:xlink="http://www.w3.org/1999/xlink" version="1.1" id="Capa_1" x="0px" y="0px" viewBox="0 0 503.456 503.456" style="enable-background:new 0 0 503.456 503.456;" xml:space="preserve" width="512px" height="512px">
<g>
	<g>
		<g>
			<path d="M496.72,242.352c-4.432-6.16-110.176-150.64-244.976-150.64c-22.443,0.104-44.717,3.887-65.936,11.2l10.272,30.4     c17.905-6.224,36.709-9.467,55.664-9.6c99.984,0,186.656,97.072,211.744,128c-14.523,17.889-30.348,34.681-47.344,50.24     c-12.617,11.577-25.979,22.314-40,32.144l-41.408-34.384c26.643-45.747,11.156-104.43-34.591-131.073     c-35.418-20.627-80.031-16.453-111.008,10.385L74.64,84.08l-20.416,24.64l47.6,39.456c-12.561,9.238-24.616,19.146-36.112,29.68     c-21.566,19.647-41.291,41.225-58.928,64.464L0,251.712l6.768,9.376c4.432,6.144,110.176,150.624,244.976,150.624     c22.443-0.104,44.717-3.887,65.936-11.2l-10.272-30.4c-17.905,6.224-36.709,9.467-55.664,9.6c-99.968,0-186.64-97.04-211.728-128     c14.545-17.875,30.362-34.676,47.328-50.272c12.617-11.577,25.979-22.314,40-32.144l41.408,34.416     c-26.643,45.747-11.156,104.43,34.592,131.073c35.418,20.627,80.031,16.453,111.008-10.385l114.544,94.976l20.416-24.624     l-47.648-39.504c12.547-9.232,24.591-19.129,36.08-29.648c21.642-19.62,41.392-41.23,58.992-64.544l6.72-9.36L496.72,242.352z      M251.744,315.712c-35.346,0-64-28.654-64-64c0.047-9.385,2.178-18.643,6.24-27.104l95.104,78.848     C278.252,311.394,265.176,315.685,251.744,315.712z M309.504,278.816L214.4,199.968c10.836-7.938,23.912-12.229,37.344-12.256     c35.346,0,64,28.654,64,64C315.697,261.097,313.566,270.355,309.504,278.816z" fill="#FFFFFF"/>
			<rect x="59.744" y="379.712" width="32" height="32" fill="#FFFFFF"/>
			<rect x="411.744" y="91.712" width="32" height="32" fill="#FFFFFF"/>
		</g>
	</g>
</g>
<g>
</g>
<g>
</g>
<g>
</g>
<g>
</g>
<g>
</g>
<g>
</g>
<g>
</g>
<g>
</g>
<g>
</g>
<g>
</g>
<g>
</g>
<g>
</g>
<g>
</g>
<g>
</g>
<g>
</g>
</svg>
