<?xml version="1.0" encoding="iso-8859-1"?>
<!-- Generator: Adobe Illustrator 19.0.0, SVG Export Plug-In . SVG Version: 6.00 Build 0)  -->
<svg xmlns="http://www.w3.org/2000/svg" xmlns:xlink="http://www.w3.org/1999/xlink" version="1.1" id="Capa_1" x="0px" y="0px" viewBox="0 0 512 512" style="enable-background:new 0 0 512 512;" xml:space="preserve" width="512px" height="512px">
<g transform="translate(1 1)">
	<g>
		<path d="M510.96,104.228C509.264,40.263,394.784-1,255-1S0.736,40.263-0.96,104.228C-0.985,104.7-1,105.178-1,105.667V255v149.333    C-1,469.12,114.169,511,255,511s256-41.88,256-106.667V255V105.667C511,105.178,510.985,104.7,510.96,104.228z M468.333,404.333    c0,29.465-94.969,64-213.333,64s-213.333-34.535-213.333-64v-87.851c0.166,0.103,0.343,0.203,0.51,0.306    c1.067,0.657,2.153,1.307,3.255,1.952c0.262,0.153,0.515,0.309,0.779,0.461c1.366,0.79,2.76,1.569,4.178,2.339    c0.386,0.21,0.783,0.416,1.173,0.624c1.056,0.564,2.122,1.124,3.205,1.677c0.505,0.258,1.015,0.514,1.526,0.77    c1.035,0.518,2.083,1.031,3.142,1.539c0.491,0.236,0.979,0.473,1.474,0.706c1.355,0.638,2.728,1.268,4.12,1.891    c0.19,0.085,0.375,0.173,0.566,0.257c1.584,0.703,3.197,1.394,4.828,2.077c0.479,0.2,0.967,0.397,1.45,0.595    c1.181,0.486,2.371,0.967,3.575,1.442c0.58,0.229,1.163,0.456,1.748,0.682c1.192,0.461,2.396,0.915,3.61,1.366    c0.536,0.199,1.067,0.399,1.607,0.596c1.734,0.631,3.483,1.255,5.26,1.865c0.006,0.002,0.011,0.004,0.017,0.006    c1.783,0.612,3.594,1.211,5.419,1.801c0.565,0.183,1.138,0.362,1.706,0.542c1.295,0.411,2.598,0.818,3.912,1.218    c0.644,0.196,1.29,0.391,1.939,0.585c1.346,0.401,2.704,0.796,4.07,1.186c0.564,0.161,1.123,0.325,1.691,0.484    c1.917,0.537,3.85,1.066,5.806,1.581c0.235,0.062,0.475,0.121,0.71,0.182c1.731,0.452,3.477,0.896,5.237,1.331    c0.648,0.16,1.301,0.316,1.953,0.474c1.396,0.338,2.799,0.67,4.213,0.997c0.697,0.161,1.395,0.322,2.096,0.48    c1.51,0.341,3.031,0.674,4.561,1.003c0.561,0.121,1.117,0.244,1.681,0.363c2.077,0.438,4.17,0.866,6.281,1.28    c0.409,0.08,0.825,0.156,1.235,0.236c1.721,0.333,3.451,0.66,5.193,0.978c0.714,0.13,1.432,0.257,2.149,0.384    c1.496,0.266,2.999,0.527,4.51,0.781c0.737,0.124,1.474,0.249,2.215,0.37c1.682,0.276,3.374,0.543,5.074,0.805    c0.531,0.082,1.057,0.167,1.59,0.248c2.219,0.335,4.453,0.658,6.702,0.968c0.536,0.074,1.077,0.143,1.615,0.216    c1.734,0.234,3.474,0.463,5.224,0.683c0.777,0.098,1.557,0.192,2.337,0.287c1.58,0.192,3.167,0.378,4.76,0.558    c0.773,0.087,1.544,0.176,2.32,0.26c1.881,0.205,3.772,0.401,5.67,0.59c0.449,0.045,0.894,0.093,1.344,0.137    c2.341,0.227,4.696,0.441,7.063,0.643c0.644,0.055,1.294,0.105,1.94,0.158c1.75,0.144,3.505,0.283,5.269,0.413    c0.823,0.061,1.649,0.119,2.475,0.177c1.669,0.117,3.343,0.227,5.023,0.331c0.785,0.049,1.567,0.099,2.354,0.145    c2.133,0.125,4.274,0.24,6.424,0.345c0.3,0.015,0.598,0.033,0.899,0.047c2.444,0.116,4.901,0.216,7.366,0.306    c0.724,0.026,1.451,0.047,2.176,0.071c1.776,0.059,3.556,0.112,5.342,0.158c0.858,0.022,1.718,0.042,2.578,0.06    c1.758,0.038,3.521,0.069,5.287,0.093c0.776,0.011,1.551,0.024,2.329,0.033c2.516,0.027,5.038,0.044,7.57,0.044    s5.055-0.017,7.57-0.044c0.778-0.008,1.552-0.022,2.329-0.033c1.767-0.025,3.53-0.055,5.287-0.093    c0.86-0.019,1.72-0.038,2.578-0.06c1.786-0.045,3.566-0.099,5.342-0.158c0.725-0.024,1.453-0.045,2.176-0.071    c2.465-0.09,4.922-0.19,7.366-0.306c0.301-0.014,0.598-0.032,0.899-0.047c2.15-0.105,4.291-0.22,6.424-0.345    c0.787-0.046,1.569-0.096,2.354-0.145c1.68-0.104,3.355-0.215,5.024-0.331c0.826-0.058,1.651-0.116,2.474-0.177    c1.764-0.13,3.519-0.269,5.27-0.413c0.646-0.053,1.295-0.103,1.939-0.158c2.366-0.202,4.721-0.416,7.063-0.643    c0.45-0.044,0.895-0.092,1.344-0.137c1.898-0.189,3.789-0.385,5.67-0.59c0.776-0.085,1.547-0.173,2.32-0.26    c1.593-0.18,3.18-0.366,4.76-0.558c0.78-0.095,1.56-0.189,2.337-0.287c1.75-0.22,3.491-0.448,5.224-0.683    c0.537-0.073,1.079-0.142,1.615-0.216c2.249-0.311,4.483-0.633,6.702-0.968c0.532-0.08,1.058-0.166,1.589-0.247    c1.701-0.262,3.394-0.529,5.076-0.805c0.74-0.121,1.477-0.246,2.214-0.37c1.511-0.255,3.015-0.515,4.511-0.781    c0.717-0.128,1.436-0.254,2.149-0.384c1.743-0.318,3.475-0.645,5.196-0.978c0.409-0.079,0.823-0.155,1.231-0.235    c2.112-0.415,4.205-0.842,6.282-1.28c0.564-0.119,1.12-0.243,1.681-0.363c1.529-0.328,3.05-0.662,4.559-1.003    c0.702-0.159,1.4-0.319,2.098-0.481c1.414-0.327,2.818-0.66,4.214-0.997c0.65-0.157,1.303-0.313,1.95-0.473    c1.761-0.435,3.508-0.879,5.239-1.331c0.235-0.061,0.475-0.12,0.709-0.182c1.956-0.515,3.89-1.044,5.807-1.581    c0.566-0.159,1.124-0.322,1.687-0.482c1.367-0.39,2.726-0.785,4.073-1.187c0.649-0.193,1.295-0.389,1.939-0.585    c1.315-0.4,2.618-0.807,3.912-1.218c0.569-0.181,1.141-0.359,1.706-0.542c1.826-0.591,3.636-1.189,5.419-1.801    c0.006-0.002,0.011-0.004,0.017-0.006c1.776-0.61,3.525-1.234,5.259-1.865c0.541-0.197,1.074-0.398,1.611-0.597    c1.212-0.45,2.415-0.904,3.605-1.364c0.586-0.227,1.17-0.454,1.751-0.683c1.203-0.474,2.392-0.955,3.572-1.441    c0.483-0.199,0.972-0.395,1.452-0.596c1.631-0.682,3.243-1.373,4.827-2.076c0.194-0.086,0.381-0.175,0.574-0.261    c1.389-0.621,2.76-1.25,4.112-1.887c0.497-0.234,0.985-0.471,1.477-0.707c1.059-0.508,2.106-1.021,3.141-1.539    c0.511-0.256,1.021-0.512,1.526-0.77c1.082-0.553,2.148-1.113,3.203-1.676c0.391-0.209,0.789-0.415,1.176-0.626    c1.417-0.77,2.81-1.548,4.176-2.338c0.266-0.154,0.521-0.311,0.785-0.465c1.099-0.643,2.183-1.292,3.248-1.948    c0.168-0.103,0.345-0.203,0.511-0.307V404.333z M255,319c-118.365,0-213.333-34.535-213.333-64v-87.851    c0.166,0.103,0.341,0.202,0.508,0.304c1.068,0.658,2.156,1.309,3.259,1.954c0.261,0.153,0.514,0.308,0.777,0.46    c1.367,0.79,2.762,1.57,4.18,2.34c0.383,0.208,0.777,0.412,1.164,0.619c1.059,0.566,2.128,1.127,3.214,1.682    c0.504,0.257,1.013,0.513,1.522,0.768c1.036,0.518,2.084,1.031,3.144,1.54c0.491,0.236,0.979,0.473,1.474,0.706    c1.355,0.638,2.728,1.268,4.12,1.891c0.19,0.085,0.375,0.173,0.566,0.257c1.585,0.703,3.197,1.394,4.828,2.077    c0.477,0.2,0.964,0.396,1.446,0.594c1.184,0.487,2.376,0.969,3.584,1.445c0.576,0.227,1.156,0.453,1.738,0.678    c1.195,0.462,2.403,0.918,3.62,1.369c0.534,0.198,1.064,0.398,1.602,0.594c1.734,0.631,3.484,1.255,5.26,1.866    c0.006,0.002,0.011,0.004,0.017,0.006c1.783,0.612,3.594,1.211,5.419,1.801c0.565,0.183,1.138,0.362,1.706,0.542    c1.295,0.411,2.598,0.818,3.912,1.218c0.644,0.196,1.29,0.391,1.939,0.585c1.346,0.401,2.704,0.796,4.07,1.186    c0.564,0.161,1.123,0.325,1.691,0.484c1.917,0.537,3.85,1.066,5.806,1.581c0.234,0.062,0.472,0.12,0.706,0.181    c1.734,0.453,3.482,0.897,5.245,1.333c0.645,0.159,1.295,0.315,1.944,0.471c1.397,0.338,2.802,0.671,4.217,0.998    c0.697,0.161,1.395,0.322,2.096,0.48c1.51,0.341,3.031,0.675,4.561,1.003c0.561,0.121,1.117,0.244,1.681,0.363    c2.077,0.438,4.17,0.866,6.281,1.28c0.409,0.08,0.825,0.156,1.235,0.236c1.721,0.333,3.451,0.66,5.193,0.978    c0.714,0.13,1.432,0.257,2.149,0.384c1.496,0.266,2.999,0.527,4.51,0.781c0.737,0.124,1.474,0.249,2.215,0.37    c1.682,0.276,3.374,0.543,5.074,0.805c0.531,0.082,1.057,0.167,1.59,0.248c2.219,0.335,4.453,0.658,6.702,0.968    c0.533,0.074,1.072,0.142,1.607,0.215c1.738,0.235,3.483,0.464,5.238,0.684c0.774,0.097,1.55,0.191,2.327,0.286    c1.583,0.192,3.173,0.378,4.769,0.559c0.769,0.087,1.537,0.175,2.309,0.259c1.885,0.206,3.781,0.402,5.684,0.591    c0.446,0.044,0.889,0.093,1.336,0.136c2.341,0.227,4.696,0.441,7.063,0.643c0.644,0.055,1.294,0.105,1.94,0.158    c1.75,0.144,3.505,0.283,5.269,0.413c0.823,0.061,1.649,0.119,2.475,0.177c1.669,0.117,3.343,0.227,5.023,0.331    c0.785,0.049,1.567,0.099,2.354,0.145c2.133,0.125,4.274,0.24,6.424,0.345c0.3,0.015,0.598,0.033,0.899,0.047    c2.444,0.116,4.901,0.216,7.366,0.306c0.724,0.026,1.451,0.047,2.176,0.071c1.776,0.059,3.556,0.112,5.342,0.158    c0.858,0.022,1.718,0.042,2.578,0.06c1.758,0.038,3.521,0.069,5.287,0.093c0.776,0.011,1.551,0.024,2.329,0.033    c2.516,0.027,5.038,0.044,7.57,0.044s5.055-0.017,7.57-0.044c0.778-0.008,1.552-0.022,2.329-0.033    c1.767-0.025,3.53-0.055,5.287-0.093c0.86-0.019,1.72-0.038,2.578-0.06c1.786-0.045,3.566-0.099,5.342-0.158    c0.725-0.024,1.453-0.045,2.176-0.071c2.465-0.09,4.922-0.19,7.366-0.306c0.301-0.014,0.598-0.032,0.899-0.047    c2.15-0.105,4.291-0.22,6.424-0.345c0.787-0.046,1.569-0.096,2.354-0.145c1.68-0.104,3.355-0.215,5.024-0.331    c0.826-0.058,1.651-0.116,2.474-0.177c1.764-0.13,3.519-0.269,5.27-0.413c0.646-0.053,1.295-0.103,1.939-0.158    c2.366-0.202,4.722-0.416,7.063-0.644c0.447-0.043,0.89-0.092,1.336-0.136c1.903-0.189,3.798-0.385,5.684-0.591    c0.772-0.084,1.54-0.172,2.309-0.259c1.596-0.18,3.186-0.367,4.769-0.559c0.777-0.094,1.554-0.188,2.327-0.286    c1.755-0.22,3.5-0.45,5.238-0.684c0.535-0.072,1.074-0.141,1.607-0.215c2.249-0.311,4.483-0.633,6.702-0.968    c0.532-0.08,1.058-0.166,1.589-0.247c1.701-0.262,3.394-0.529,5.076-0.805c0.74-0.121,1.477-0.246,2.214-0.37    c1.511-0.255,3.015-0.515,4.511-0.781c0.717-0.128,1.436-0.254,2.149-0.384c1.743-0.318,3.475-0.645,5.196-0.978    c0.409-0.079,0.823-0.155,1.231-0.235c2.112-0.415,4.205-0.842,6.282-1.28c0.564-0.119,1.12-0.243,1.681-0.363    c1.529-0.328,3.05-0.662,4.559-1.003c0.702-0.159,1.4-0.319,2.098-0.481c1.416-0.327,2.821-0.66,4.219-0.998    c0.647-0.157,1.297-0.312,1.941-0.471c1.764-0.436,3.513-0.88,5.248-1.333c0.234-0.061,0.472-0.119,0.705-0.181    c1.956-0.515,3.89-1.044,5.807-1.581c0.566-0.159,1.124-0.322,1.687-0.482c1.367-0.39,2.726-0.785,4.073-1.187    c0.649-0.193,1.295-0.389,1.939-0.585c1.315-0.4,2.618-0.807,3.912-1.218c0.569-0.181,1.141-0.359,1.706-0.542    c1.826-0.591,3.636-1.189,5.419-1.801c0.006-0.002,0.011-0.004,0.017-0.006c1.777-0.61,3.526-1.234,5.259-1.865    c0.54-0.197,1.071-0.397,1.606-0.596c1.215-0.451,2.421-0.906,3.615-1.367c0.583-0.225,1.164-0.452,1.742-0.68    c1.206-0.476,2.398-0.958,3.58-1.444c0.482-0.198,0.969-0.394,1.447-0.594c1.631-0.682,3.243-1.373,4.827-2.077    c0.194-0.086,0.381-0.175,0.574-0.261c1.389-0.621,2.76-1.25,4.112-1.887c0.497-0.234,0.985-0.471,1.477-0.707    c1.059-0.508,2.107-1.021,3.143-1.54c0.51-0.255,1.018-0.511,1.522-0.768c1.085-0.555,2.154-1.116,3.212-1.681    c0.388-0.207,0.783-0.412,1.167-0.621c1.417-0.77,2.812-1.549,4.178-2.339c0.265-0.153,0.52-0.31,0.783-0.464    c1.101-0.644,2.187-1.294,3.253-1.951c0.167-0.103,0.343-0.202,0.509-0.305V255C468.333,284.465,373.365,319,255,319z     M255,169.667c-118.365,0-213.333-34.535-213.333-64s94.969-64,213.333-64s213.333,34.535,213.333,64S373.365,169.667,255,169.667    z" fill="#FFFFFF"/>
	</g>
</g>
<g>
</g>
<g>
</g>
<g>
</g>
<g>
</g>
<g>
</g>
<g>
</g>
<g>
</g>
<g>
</g>
<g>
</g>
<g>
</g>
<g>
</g>
<g>
</g>
<g>
</g>
<g>
</g>
<g>
</g>
</svg>
