<?xml version="1.0" encoding="iso-8859-1"?>
<!-- Generator: Adobe Illustrator 19.0.0, SVG Export Plug-In . SVG Version: 6.00 Build 0)  -->
<svg xmlns="http://www.w3.org/2000/svg" xmlns:xlink="http://www.w3.org/1999/xlink" version="1.1" id="Capa_1" x="0px" y="0px" viewBox="0 0 512.001 512.001" style="enable-background:new 0 0 512.001 512.001;" xml:space="preserve" width="512px" height="512px">
<g>
	<g>
		<path d="M510.477,12.346C507.381,4.873,500.088,0,492,0H20.001C11.912,0,4.619,4.873,1.523,12.346    c-3.096,7.474-1.385,16.076,4.335,21.796l181.179,181.179V492c0,8.089,4.873,15.382,12.347,18.478    c7.476,3.096,16.078,1.383,21.796-4.335l97.926-97.925c3.75-3.75,5.857-8.838,5.857-14.142V215.321L506.142,34.142    C511.862,28.422,513.573,19.82,510.477,12.346z M290.82,192.895c-3.75,3.75-5.857,8.838-5.857,14.142V385.79l-57.926,57.925    V207.037c0-5.304-2.107-10.392-5.857-14.142L68.285,40h375.431L290.82,192.895z" fill="#008389"/>
	</g>
</g>
<g>
</g>
<g>
</g>
<g>
</g>
<g>
</g>
<g>
</g>
<g>
</g>
<g>
</g>
<g>
</g>
<g>
</g>
<g>
</g>
<g>
</g>
<g>
</g>
<g>
</g>
<g>
</g>
<g>
</g>
</svg>
