<?xml version="1.0" encoding="iso-8859-1"?>
<!-- Generator: Adobe Illustrator 19.0.0, SVG Export Plug-In . SVG Version: 6.00 Build 0)  -->
<svg xmlns="http://www.w3.org/2000/svg" xmlns:xlink="http://www.w3.org/1999/xlink" version="1.1" id="Capa_1" x="0px" y="0px" viewBox="0 0 489 489" style="enable-background:new 0 0 489 489;" xml:space="preserve" width="512px" height="512px">
<g>
	<g>
		<path d="M166.55,0H20.85C9.45,0,0.05,9.4,0.05,20.8v146.7c0,11.4,9.4,20.8,20.8,20.8h145.7c11.4,0,19.8-9.4,20.8-19.8V20.8    C187.35,9.4,177.95,0,166.55,0z M145.75,147.7H40.65V40.6h105.1V147.7z" fill="#ffffff"/>
		<path d="M273.65,61.4h194.5c11.4,0,20.8-9.4,20.8-20.8s-9.4-20.8-20.8-20.8h-194.5c-11.4,0-20.8,9.4-20.8,20.8    C252.85,52,262.25,61.4,273.65,61.4z" fill="#ffffff"/>
		<path d="M468.25,125.9h-194.6c-11.4,0-20.8,9.4-20.8,20.8c0,11.4,9.4,20.8,20.8,20.8h194.5c11.4,0,20.8-9.4,20.8-20.8    C489.05,135.3,479.65,125.9,468.25,125.9z" fill="#ffffff"/>
		<path d="M166.55,300.7H20.85c-11.4,0-20.8,9.4-20.8,20.8v146.7c0,11.4,9.4,20.8,20.8,20.8h145.7c11.4,0,19.8-9.4,20.8-19.8V321.5    C187.35,310,177.95,300.7,166.55,300.7z M145.75,448.4H40.65V341.3h105.1V448.4z" fill="#ffffff"/>
		<path d="M468.25,320.4h-194.6c-11.4,0-20.8,9.4-20.8,20.8s9.4,20.8,20.8,20.8h194.5c11.4,0,20.8-9.4,20.8-20.8    C489.05,329.8,479.65,320.4,468.25,320.4z" fill="#ffffff"/>
		<path d="M468.25,426.6h-194.6c-11.4,0-20.8,9.4-20.8,20.8s9.4,20.8,20.8,20.8h194.5c11.4,0,20.8-9.4,20.8-20.8    C489.05,435.9,479.65,426.6,468.25,426.6z" fill="#ffffff"/>
	</g>
</g>
<g>
</g>
<g>
</g>
<g>
</g>
<g>
</g>
<g>
</g>
<g>
</g>
<g>
</g>
<g>
</g>
<g>
</g>
<g>
</g>
<g>
</g>
<g>
</g>
<g>
</g>
<g>
</g>
<g>
</g>
</svg>
