<?xml version="1.0" encoding="iso-8859-1"?>
<!-- Generator: Adobe Illustrator 18.0.0, SVG Export Plug-In . SVG Version: 6.00 Build 0)  -->
<!DOCTYPE svg PUBLIC "-//W3C//DTD SVG 1.1//EN" "http://www.w3.org/Graphics/SVG/1.1/DTD/svg11.dtd">
<svg xmlns="http://www.w3.org/2000/svg" xmlns:xlink="http://www.w3.org/1999/xlink" version="1.1" id="Capa_1" x="0px" y="0px" viewBox="0 0 330 330" style="enable-background:new 0 0 330 330;" xml:space="preserve" width="512px" height="512px">
<g>
	<path d="M305,149.998H121.215l44.392-44.392c5.858-5.858,5.858-15.355,0-21.213c-5.857-5.858-15.355-5.858-21.213,0l-69.998,69.998   c-5.858,5.857-5.858,15.355,0,21.213l69.998,70.002c2.929,2.929,6.767,4.394,10.606,4.394c3.838-0.001,7.678-1.465,10.606-4.393   c5.857-5.858,5.858-15.355,0-21.213l-44.394-44.396H305c8.284,0,15-6.716,15-15C320,156.714,313.284,149.998,305,149.998z" fill="#FFFFFF"/>
	<path d="M155,300H40V30h115c8.284,0,15-6.716,15-15s-6.716-15-15-15H25c-8.284,0-15,6.716-15,15v300c0,8.284,6.716,15,15,15h130   c8.284,0,15-6.716,15-15S163.284,300,155,300z" fill="#FFFFFF"/>
</g>
<g>
</g>
<g>
</g>
<g>
</g>
<g>
</g>
<g>
</g>
<g>
</g>
<g>
</g>
<g>
</g>
<g>
</g>
<g>
</g>
<g>
</g>
<g>
</g>
<g>
</g>
<g>
</g>
<g>
</g>
</svg>
