<svg xmlns="http://www.w3.org/2000/svg"><symbol id="funnel" viewBox="0 0 485.01 485.01"><path fill="#333" d="M171.501 464.698v-237.9l-166.3-192.6c-8.9-10.9-7.9-33.3 15.1-33.3h443.6c21.6 0 26.6 19.8 15.1 33.3l-162.3 187.5v147.2c0 6-2 11.1-7.1 15.1l-103.8 95.8c-12 8.9-34.3 4.1-34.3-15.1zm-106.8-423.4l142.2 164.3c3 4 5 8.1 5 13.1v200.6l64.5-58.5v-146.1c0-5 2-9.1 5-13.1l138.1-160.3h-354.8z"/></symbol><symbol id="ic-search" viewBox="0 0 512 512"><path fill="#666" d="M495 466.2L377.2 348.4c29.2-35.6 46.8-81.2 46.8-130.9C424 103.5 331.5 11 217.5 11 103.4 11 11 103.5 11 217.5S103.4 424 217.5 424c49.7 0 95.2-17.5 130.8-46.7L466.1 495c8 8 20.9 8 28.9 0 8-7.9 8-20.9 0-28.8zm-277.5-83.3C126.2 382.9 52 308.7 52 217.5S126.2 52 217.5 52C308.7 52 383 126.3 383 217.5s-74.3 165.4-165.5 165.4z"/></symbol><symbol id="list" viewBox="0 0 489 489"><path fill="#fff" d="M166.55 0H20.85C9.45 0 .05 9.4.05 20.8v146.7c0 11.4 9.4 20.8 20.8 20.8h145.7c11.4 0 19.8-9.4 20.8-19.8V20.8c0-11.4-9.4-20.8-20.8-20.8zm-20.8 147.7H40.65V40.6h105.1v107.1zm127.9-86.3h194.5c11.4 0 20.8-9.4 20.8-20.8s-9.4-20.8-20.8-20.8h-194.5c-11.4 0-20.8 9.4-20.8 20.8s9.4 20.8 20.8 20.8zm194.6 64.5h-194.6c-11.4 0-20.8 9.4-20.8 20.8s9.4 20.8 20.8 20.8h194.5c11.4 0 20.8-9.4 20.8-20.8.1-11.4-9.3-20.8-20.7-20.8zm-301.7 174.8H20.85c-11.4 0-20.8 9.4-20.8 20.8v146.7c0 11.4 9.4 20.8 20.8 20.8h145.7c11.4 0 19.8-9.4 20.8-19.8V321.5c0-11.5-9.4-20.8-20.8-20.8zm-20.8 147.7H40.65V341.3h105.1v107.1zm322.5-128h-194.6c-11.4 0-20.8 9.4-20.8 20.8s9.4 20.8 20.8 20.8h194.5c11.4 0 20.8-9.4 20.8-20.8.1-11.4-9.3-20.8-20.7-20.8zm0 106.2h-194.6c-11.4 0-20.8 9.4-20.8 20.8s9.4 20.8 20.8 20.8h194.5c11.4 0 20.8-9.4 20.8-20.8.1-11.5-9.3-20.8-20.7-20.8z"/></symbol><symbol id="login" viewBox="0 0 330 330"><g fill="#FFF"><path d="M305 149.998H121.215l44.392-44.392c5.858-5.858 5.858-15.355 0-21.213-5.857-5.858-15.355-5.858-21.213 0l-69.998 69.998c-5.858 5.857-5.858 15.355 0 21.213l69.998 70.002A14.952 14.952 0 0 0 155 250a14.96 14.96 0 0 0 10.606-4.393c5.857-5.858 5.858-15.355 0-21.213l-44.394-44.396H305c8.284 0 15-6.716 15-15 0-8.284-6.716-15-15-15z"/><path d="M155 300H40V30h115c8.284 0 15-6.716 15-15s-6.716-15-15-15H25c-8.284 0-15 6.716-15 15v300c0 8.284 6.716 15 15 15h130c8.284 0 15-6.716 15-15s-6.716-15-15-15z"/></g></symbol><symbol id="notification-bell" viewBox="0 0 612 612"><g><path d="M570.107 500.254c-65.037-29.371-67.511-155.441-67.559-158.622v-84.578c0-81.402-49.742-151.399-120.427-181.203C381.969 34 347.883 0 306.001 0c-41.883 0-75.968 34.002-76.121 75.849-70.682 29.804-120.425 99.801-120.425 181.203v84.578c-.046 3.181-2.522 129.251-67.561 158.622a17.257 17.257 0 0 0 7.103 32.986h164.88c3.38 18.594 12.172 35.892 25.619 49.903 17.86 18.608 41.479 28.856 66.502 28.856 25.025 0 48.644-10.248 66.502-28.856 13.449-14.012 22.241-31.311 25.619-49.903h164.88a17.26 17.26 0 0 0 16.872-13.626 17.25 17.25 0 0 0-9.764-19.358zm-85.673-60.395c6.837 20.728 16.518 41.544 30.246 58.866H97.32c13.726-17.32 23.407-38.135 30.244-58.866h356.87zM306.001 34.515c18.945 0 34.963 12.73 39.975 30.082-12.912-2.678-26.282-4.09-39.975-4.09s-27.063 1.411-39.975 4.09c5.013-17.351 21.031-30.082 39.975-30.082zM143.97 341.736v-84.685c0-89.343 72.686-162.029 162.031-162.029s162.031 72.686 162.031 162.029v84.826c.023 2.596.427 29.879 7.303 63.465H136.663c6.88-33.618 7.286-60.949 7.307-63.606zm162.031 235.749c-26.341 0-49.33-18.992-56.709-44.246h113.416c-7.379 25.254-30.364 44.246-56.707 44.246z"/><path d="M306.001 119.235c-74.25 0-134.657 60.405-134.657 134.654 0 9.531 7.727 17.258 17.258 17.258 9.531 0 17.258-7.727 17.258-17.258 0-55.217 44.923-100.139 100.142-100.139 9.531 0 17.258-7.727 17.258-17.258-.001-9.532-7.728-17.257-17.259-17.257z"/></g></symbol><symbol id="pencil" viewBox="0 0 512 512"><path fill="#fff" d="M455.1 137.9l-32.4 32.4-81-81.1 32.4-32.4c6.6-6.6 18.1-6.6 24.7 0l56.3 56.4c6.8 6.8 6.8 17.9 0 24.7zm-270.7 271l-81-81.1 209.4-209.7 81 81.1-209.4 209.7zm-99.7-42l60.6 60.7-84.4 23.8 23.8-84.5zM484 84.3l-56.3-56.4c-11-11-50.7-31.8-82.4 0L60 313.4c-2.5 2.5-4.3 5.5-5.2 8.9l-43 153.1c-2 7.1.1 14.7 5.2 20 5.2 5.3 15.6 6.2 20 5.2l153-43.1c3.4-.9 6.4-2.7 8.9-5.2L484 166.8c22.7-22.7 22.7-59.7 0-82.5z"/></symbol><symbol id="question" viewBox="0 0 426.67 426.67"><path fill="#FFF" d="M192 298.67h42.67v42.67H192z"/><path fill="#FFF" d="M213.333 0C95.513 0 0 95.513 0 213.333s95.513 213.333 213.333 213.333 213.333-95.513 213.333-213.333S331.154 0 213.333 0zm0 388.053c-96.495 0-174.72-78.225-174.72-174.72s78.225-174.72 174.72-174.72c96.446.117 174.602 78.273 174.72 174.72 0 96.496-78.224 174.72-174.72 174.72z"/><path fill="#FFF" d="M296.32 150.4c-10.974-45.833-57.025-74.091-102.858-63.117-38.533 9.226-65.646 43.762-65.462 83.384h42.667c2.003-23.564 22.729-41.043 46.293-39.04s41.043 22.729 39.04 46.293c-4.358 21.204-23.38 36.169-45.013 35.413-10.486 0-18.987 8.501-18.987 18.987v45.013h42.667v-24.32c45.12-11.635 72.565-57.312 61.653-102.613z"/></symbol><symbol id="round-right-arrow" viewBox="0 0 400 400"><path fill="#FFF" d="M361.796 209.654c-7.887 0-14.279 6.393-14.279 14.275 0 81.342-66.172 147.518-147.519 147.518-81.342 0-147.515-66.176-147.515-147.518 0-76.521 58.575-139.585 133.239-146.796v32.863c0 5.099 2.725 9.812 7.137 12.362a14.26 14.26 0 0 0 14.275 0l82.904-47.857a14.262 14.262 0 0 0 7.137-12.361c0-5.1-2.717-9.815-7.137-12.363L207.134 1.913a14.27 14.27 0 0 0-14.275 0 14.284 14.284 0 0 0-7.137 12.363v34.212c-90.426 7.298-161.791 83.167-161.791 175.44 0 97.085 78.984 176.07 176.066 176.07 97.088 0 176.071-78.985 176.071-176.07 0-7.881-6.389-14.274-14.272-14.274z"/></symbol><symbol id="rubbish-bin" viewBox="0 0 774.27 774.27"><g fill="#FFF"><path d="M640.35 91.169H536.971V23.991C536.971 10.469 526.064 0 512.543 0c-1.312 0-2.187.438-2.614.875-.438-.437-1.313-.875-1.75-.875H261.722c-13.521 0-23.99 10.469-23.99 23.991V91.17H133.916c-29.667 0-52.783 23.116-52.783 52.783v86.368h45.803v491.6c0 29.668 22.679 52.346 52.346 52.346h415.703c29.667 0 52.782-22.678 52.782-52.346v-491.6h45.366v-86.368c0-29.667-23.125-52.784-52.783-52.784zM285.713 47.981h202.84v43.188h-202.84V47.981zm313.636 673.941c0 3.061-1.312 4.363-4.364 4.363H179.282c-3.052 0-4.364-1.303-4.364-4.363V230.32h424.431v491.602zm45.366-539.583H129.551v-38.387c0-3.053 1.312-4.802 4.364-4.802H640.35c3.053 0 4.365 1.749 4.365 4.802v38.387z"/><path d="M475.03 286.59h48.42v396.94h-48.42zm-111.67 0h48.42v396.94h-48.42zm-111.67 0h48.42v396.94h-48.42z"/></g></symbol><symbol id="select" viewBox="0 0 512 512"><path fill="#FFF" d="M0 0h32v32H0zm80 0h32v32H80zm80 0h32v32h-32zm80 0h32v32h-32zm80 0h32v32h-32zm80 0h32v32h-32zm80 0h32v32h-32zM0 480h32v32H0zm80 0h32v32H80zm80 0h32v32h-32zm80 0h32v32h-32zm80 0h32v32h-32zm80 0h32v32h-32zM0 400h32v32H0zm0-80h32v32H0zm0-80h32v32H0zm0-80h32v32H0zm0-80h32v32H0zm480 320h32v32h-32zm0-80h32v32h-32zm0-80h32v32h-32zm0-80h32v32h-32zm0-80h32v32h-32zm0 400h32v32h-32zM96 416h320V96H96v320zm32-288h256v256H128V128z"/></symbol><symbol id="star-disable" viewBox="0 0 64 64"><path fill="#c2c2c2" d="M14.831 39.619l-3.569 20.34a2.04 2.04 0 0 0 .924 2.079 2.038 2.038 0 0 0 2.271-.076l17.56-12.692 17.561 12.692a2.035 2.035 0 0 0 2.27.076 2.043 2.043 0 0 0 .925-2.079l-3.569-20.34 14.194-12.512a2.029 2.029 0 0 0 .608-2.097 2.031 2.031 0 0 0-1.64-1.44l-21.441-3.342-7.029-16.893a2.035 2.035 0 0 0-3.757 0l-7.03 16.894L1.668 23.57a2.033 2.033 0 0 0-1.032 3.537l14.195 12.512z"/></symbol><symbol id="star-enable" viewBox="0 0 64 64"><path fill="#008389" d="M14.831 39.619l-3.569 20.34a2.04 2.04 0 0 0 .924 2.079 2.038 2.038 0 0 0 2.271-.076l17.56-12.692 17.561 12.692a2.035 2.035 0 0 0 2.27.076 2.043 2.043 0 0 0 .925-2.079l-3.569-20.34 14.194-12.512a2.029 2.029 0 0 0 .608-2.097 2.031 2.031 0 0 0-1.64-1.44l-21.441-3.342-7.029-16.893a2.035 2.035 0 0 0-3.757 0l-7.03 16.894L1.668 23.57a2.033 2.033 0 0 0-1.032 3.537l14.195 12.512z"/></symbol><symbol id="unlock" viewBox="0 0 223.09 223.09"><path fill="#FFF" d="M173.975 83.234H77.43V49.115C77.43 30.304 92.735 15 111.549 15c18.813 0 34.119 15.304 34.119 34.115 0 4.143 3.357 7.5 7.5 7.5s7.5-3.357 7.5-7.5C160.668 22.033 138.633 0 111.549 0S62.43 22.033 62.43 49.115v34.119H49.12a7.499 7.499 0 0 0-7.5 7.5v124.859c0 4.143 3.357 7.5 7.5 7.5h124.855c4.143 0 7.5-3.357 7.5-7.5V90.734a7.5 7.5 0 0 0-7.5-7.5zm-7.5 124.86H56.619V98.234h109.856v109.86z"/></symbol><symbol id="user" viewBox="0 0 513.32 513.32"><path fill="#fff" d="M346.491 316.547c49.193-29.944 81.275-83.414 81.275-145.44C427.767 76.998 350.768 0 256.66 0S85.553 76.998 85.553 171.107c0 62.026 32.082 115.497 81.275 145.44C81.275 348.63 17.11 423.489 0 513.32h42.777c21.388-98.386 109.081-171.107 213.883-171.107s192.495 72.72 213.883 171.107h42.777c-17.11-91.97-81.275-166.829-166.829-196.773zM128.33 171.107c0-70.581 57.749-128.33 128.33-128.33s128.33 57.749 128.33 128.33-57.749 128.33-128.33 128.33-128.33-57.749-128.33-128.33z"/></symbol><symbol id="userimg" viewBox="0 0 294.81 294.81"><path d="M251.654 43.164c-57.479-57.48-151.006-57.48-208.485 0-20.167 20.167-33.962 45.503-39.895 73.27-5.776 27.037-3.884 55.049 5.471 81.006a6 6 0 1 0 11.289-4.069c-8.595-23.849-10.333-49.586-5.025-74.431 5.447-25.496 18.119-48.766 36.645-67.292 52.801-52.801 138.714-52.801 191.515 0 25.145 25.146 39.221 58.571 39.634 94.12.413 35.484-12.811 69.176-37.234 94.868-.289.304-.575.61-.861.916-.506.541-1.011 1.083-1.539 1.611-52.801 52.801-138.714 52.801-191.515 0a44.08 44.08 0 0 1-.826-.853c-.014-.554-.026-1.1-.026-1.638 0-1.208.023-2.411.067-3.61.015-.401.045-.798.065-1.198.039-.797.076-1.594.134-2.387.035-.473.086-.941.128-1.412.063-.715.122-1.43.2-2.141.055-.502.127-1 .19-1.5.085-.675.166-1.352.266-2.024.076-.512.166-1.019.25-1.528.107-.655.211-1.31.332-1.961.095-.515.204-1.025.308-1.537.129-.639.256-1.279.398-1.914.115-.515.243-1.027.366-1.539.15-.625.299-1.25.461-1.87.135-.514.281-1.024.423-1.535.171-.612.341-1.225.524-1.833.153-.51.317-1.016.479-1.522.192-.601.384-1.203.587-1.799.172-.503.352-1.003.532-1.503.213-.592.427-1.184.651-1.772.19-.497.387-.989.585-1.482.233-.581.468-1.162.712-1.738.208-.49.422-.976.638-1.462.253-.571.509-1.14.773-1.705.225-.481.455-.959.688-1.436.274-.561.551-1.121.835-1.676a97.516 97.516 0 0 1 2.414-4.426 97.851 97.851 0 0 1 3.677-5.849c.353-.52.714-1.034 1.078-1.547.303-.427.606-.853.916-1.274a93.12 93.12 0 0 1 1.137-1.511c.317-.414.633-.828.957-1.237.393-.497.795-.988 1.198-1.477.329-.4.658-.8.994-1.195a95.68 95.68 0 0 1 1.261-1.443c.342-.386.682-.773 1.03-1.153a92.1 92.1 0 0 1 1.321-1.404c.354-.372.706-.745 1.066-1.112.455-.462.92-.914 1.384-1.368.364-.355.725-.714 1.095-1.064.478-.452.967-.893 1.454-1.335.372-.337.739-.678 1.116-1.01.503-.443 1.019-.873 1.532-1.306.376-.317.748-.639 1.129-.951.531-.434 1.075-.855 1.617-1.279.378-.295.75-.597 1.132-.887.571-.433 1.154-.851 1.736-1.271.367-.266.727-.538 1.099-.799.642-.451 1.299-.886 1.954-1.323.323-.215.639-.438.964-.65a96.729 96.729 0 0 1 2.598-1.622c.136-.082.268-.17.405-.252a98.838 98.838 0 0 1 3.076-1.766c.355-.195.72-.378 1.079-.569.689-.368 1.376-.739 2.077-1.091.449-.226.909-.438 1.362-.657.572-.277 1.142-.557 1.721-.824 10.875 10.388 25.382 16.269 40.44 16.269 15.058 0 29.566-5.882 40.441-16.271 21.229 9.825 38.604 27.454 48.037 48.892a6 6 0 1 0 10.983-4.832c-10.318-23.45-28.281-42.189-51.018-53.501 6.597-9.677 10.166-21.104 10.166-32.896 0-32.317-26.292-58.609-58.609-58.609a6 6 0 0 0 0 12c25.701 0 46.609 20.909 46.609 46.609 0 11.492-4.271 22.558-12.025 31.157l-.003.003c-8.854 9.818-21.458 15.449-34.582 15.449s-25.729-5.631-34.582-15.449l-.005-.004c-7.753-8.602-12.023-19.665-12.023-31.155 0-12.544 4.911-24.312 13.829-33.134a6 6 0 1 0-8.44-8.531c-11.213 11.09-17.389 25.887-17.389 41.661 0 11.78 3.56 23.199 10.146 32.871-.059.029-.116.061-.174.091-.468.234-.925.482-1.389.721-.711.368-1.424.734-2.125 1.117-.496.27-.981.554-1.472.831-.655.371-1.311.74-1.957 1.123-.501.298-.994.606-1.49.911-.62.382-1.24.763-1.851 1.156-.499.321-.989.651-1.482.979-.593.395-1.185.792-1.769 1.198-.491.342-.976.691-1.461 1.04-.57.411-1.138.824-1.699 1.245-.481.361-.956.727-1.43 1.095a103.251 103.251 0 0 0-4.61 3.787 101.472 101.472 0 0 0-2.877 2.593c-.436.407-.871.815-1.301 1.23-.499.482-.99.971-1.48 1.462-.418.419-.836.837-1.246 1.262-.485.503-.961 1.015-1.436 1.527-.397.428-.797.854-1.187 1.289-.475.528-.937 1.067-1.401 1.604-.373.432-.749.86-1.115 1.297-.471.563-.927 1.137-1.386 1.709-.341.426-.689.846-1.024 1.277-.482.62-.948 1.252-1.416 1.882-.294.396-.596.785-.884 1.185a106.27 106.27 0 0 0-1.733 2.488c-.149.22-.307.434-.455.655a107.713 107.713 0 0 0-2.063 3.204c-.231.373-.448.754-.674 1.129-.433.719-.868 1.437-1.285 2.166-.26.455-.506.918-.759 1.377-.365.66-.732 1.318-1.082 1.986-.26.495-.506.996-.759 1.495-.326.644-.653 1.287-.966 1.938-.249.518-.486 1.042-.727 1.563-.296.643-.593 1.285-.877 1.934-.234.535-.458 1.075-.683 1.614-.271.647-.54 1.294-.798 1.946-.217.548-.425 1.099-.633 1.65-.246.654-.489 1.309-.723 1.968a119.261 119.261 0 0 0-1.23 3.675 111.873 111.873 0 0 0-1.564 5.453 108.91 108.91 0 0 0-.509 2.063 102.99 102.99 0 0 0-.4 1.729c-.154.699-.297 1.402-.437 2.106-.115.576-.232 1.152-.338 1.731-.131.718-.249 1.44-.366 2.163-.092.57-.189 1.139-.272 1.711-.109.746-.201 1.496-.295 2.246-.069.556-.145 1.111-.206 1.669-.086.786-.152 1.577-.221 2.368-.046.527-.101 1.052-.139 1.582-.064.883-.106 1.77-.149 2.658-.021.441-.054.879-.07 1.321a111.357 111.357 0 0 0-.075 4.011c0 1.449.049 2.819.108 4.332.014.35.063.69.133 1.022l.015.078c.074.327.178.641.303.945l.036.09c.129.3.283.586.457.858l.065.101c.179.267.378.518.595.752.016.017.027.038.043.055l.792.843a75.61 75.61 0 0 0 1.82 1.901c28.74 28.74 66.491 43.11 104.243 43.11s75.503-14.37 104.243-43.11c.624-.623 1.222-1.262 1.82-1.901l.792-.843c26.589-27.971 40.985-64.647 40.536-103.275-.447-38.705-15.771-75.095-43.145-102.469z"/></symbol><symbol id="visibility" viewBox="0 0 503.46 503.46"><g fill="#FFF"><path d="M496.704 242.368c-4.432-6.16-110.208-150.64-244.976-150.64S11.184 236.208 6.752 242.368L0 251.728l6.752 9.36c4.432 6.16 110.208 150.64 244.976 150.64s240.544-144.48 244.976-150.64l6.752-9.36-6.752-9.36zm-244.976 137.36c-99.92 0-186.608-97.024-211.712-128 25.104-30.976 111.792-128 211.712-128s186.608 97.024 211.712 128c-25.104 30.976-111.792 128-211.712 128z"/><path d="M251.728 155.728c-53.019 0-96 42.981-96 96s42.981 96 96 96 96-42.981 96-96c-.053-52.997-43.003-95.947-96-96zm0 160c-35.346 0-64-28.654-64-64 0-35.346 28.654-64 64-64 35.346 0 64 28.654 64 64 0 35.346-28.654 64-64 64z"/><path d="M235.73 235.73h32v32h-32zm176 144h32v32h-32zm-352 0h32v32h-32zm352-288h32v32h-32zm-352 0h32v32h-32z"/></g></symbol><symbol id="blind" viewBox="0 0 503.46 503.46"><path fill="#FFF" d="M496.72 242.352c-4.432-6.16-110.176-150.64-244.976-150.64a205.277 205.277 0 0 0-65.936 11.2l10.272 30.4a173.23 173.23 0 0 1 55.664-9.6c99.984 0 186.656 97.072 211.744 128a468.155 468.155 0 0 1-47.344 50.24 392.051 392.051 0 0 1-40 32.144l-41.408-34.384c26.643-45.747 11.156-104.43-34.591-131.073-35.418-20.627-80.031-16.453-111.008 10.385L74.64 84.08l-20.416 24.64 47.6 39.456a434.5 434.5 0 0 0-36.112 29.68A478.637 478.637 0 0 0 6.784 242.32L0 251.712l6.768 9.376c4.432 6.144 110.176 150.624 244.976 150.624a205.277 205.277 0 0 0 65.936-11.2l-10.272-30.4a173.23 173.23 0 0 1-55.664 9.6c-99.968 0-186.64-97.04-211.728-128a478.551 478.551 0 0 1 47.328-50.272 392.051 392.051 0 0 1 40-32.144l41.408 34.416c-26.643 45.747-11.156 104.43 34.592 131.073 35.418 20.627 80.031 16.453 111.008-10.385l114.544 94.976 20.416-24.624-47.648-39.504a436.627 436.627 0 0 0 36.08-29.648 466.475 466.475 0 0 0 58.992-64.544l6.72-9.36-6.736-9.344zm-244.976 73.36c-35.346 0-64-28.654-64-64a63.36 63.36 0 0 1 6.24-27.104l95.104 78.848a63.407 63.407 0 0 1-37.344 12.256zm57.76-36.896L214.4 199.968a63.407 63.407 0 0 1 37.344-12.256c35.346 0 64 28.654 64 64a63.36 63.36 0 0 1-6.24 27.104zM59.74 379.71h32v32h-32zm352-288h32v32h-32z"/></symbol><symbol id="checklist" viewBox="0 0 485.69 485.69"><g fill="#fff"><path d="M410.428 34.738h-76.405l5.155 23.852c.634 2.961.603 5.934.271 8.859h54.621V452.98H91.588V67.449h54.637c-.332-2.941-.348-5.914.285-8.891l5.156-23.82H75.248c-9.031 0-16.34 7.324-16.34 16.354v418.243c0 9.016 7.309 16.354 16.34 16.354h335.18c9.031 0 16.354-7.341 16.354-16.354V51.093c.001-9.031-7.323-16.355-16.354-16.355z"/><path d="M355.568 152.949h-111.71c-9.047 0-16.355 7.324-16.355 16.34 0 9.035 7.309 16.355 16.355 16.355h111.71c9.047 0 16.354-7.32 16.354-16.355.002-9.016-7.307-16.34-16.354-16.34zm0 100.305h-111.71c-9.047 0-16.355 7.323-16.355 16.354 0 9.021 7.309 16.357 16.355 16.357h111.71c9.047 0 16.354-7.34 16.354-16.357.002-9.031-7.307-16.354-16.354-16.354zm-236.012-96.462c-6.898 5.82-7.786 16.137-1.965 23.047l23.855 28.27a16.322 16.322 0 0 0 13.699 5.758 16.34 16.34 0 0 0 12.703-7.719l42.914-69.477c4.746-7.688 2.375-17.75-5.312-22.492-7.688-4.777-17.75-2.375-22.497 5.313l-31.066 50.273-9.301-11.012c-5.823-6.91-16.119-7.797-23.03-1.961zm39.164 88.302c-13.554 0-24.535 10.978-24.535 24.517 0 13.543 10.98 24.52 24.535 24.52 13.543 0 24.52-10.977 24.52-24.52 0-13.541-10.977-24.517-24.52-24.517zm196.848 106.265h-111.71c-9.047 0-16.355 7.309-16.355 16.358 0 9.017 7.309 16.34 16.355 16.34h111.71c9.047 0 16.354-7.323 16.354-16.34.002-9.05-7.307-16.358-16.354-16.358zm-196.848-8.16c-13.554 0-24.535 10.977-24.535 24.52 0 13.539 10.98 24.521 24.535 24.521 13.543 0 24.52-10.979 24.52-24.521 0-13.543-10.977-24.52-24.52-24.52zm14.743-267.586h138.73c3.401 0 6.613-1.521 8.746-4.176a11.155 11.155 0 0 0 2.229-9.43L311.686 8.859A11.235 11.235 0 0 0 300.708 0H184.963a11.242 11.242 0 0 0-10.977 8.859l-11.5 53.148c-.695 3.324.125 6.801 2.247 9.43a11.188 11.188 0 0 0 8.73 4.176z"/></g></symbol><symbol id="database" viewBox="0 0 512 512"><path fill="#FFF" d="M511.96 105.228C510.264 41.263 395.784 0 256 0S1.736 41.263.04 105.228c-.025.472-.04.95-.04 1.439v298.666C0 470.12 115.169 512 256 512s256-41.88 256-106.667V106.667c0-.489-.015-.967-.04-1.439zm-42.627 300.105c0 29.465-94.969 64-213.333 64s-213.333-34.535-213.333-64v-87.851c.166.103.343.203.51.306 1.067.657 2.153 1.307 3.255 1.952.262.153.515.309.779.461 1.366.79 2.76 1.569 4.178 2.339.386.21.783.416 1.173.624a195.898 195.898 0 0 0 7.873 3.986c.491.236.979.473 1.474.706 1.355.638 2.728 1.268 4.12 1.891.19.085.375.173.566.257 1.584.703 3.197 1.394 4.828 2.077.479.2.967.397 1.45.595a263.405 263.405 0 0 0 8.933 3.49c.536.199 1.067.399 1.607.596a303.9 303.9 0 0 0 5.26 1.865l.017.006c1.783.612 3.594 1.211 5.419 1.801.565.183 1.138.362 1.706.542a346.467 346.467 0 0 0 9.921 2.989c.564.161 1.123.325 1.691.484 1.917.537 3.85 1.066 5.806 1.581.235.062.475.121.71.182 1.731.452 3.477.896 5.237 1.331.648.16 1.301.316 1.953.474a420.74 420.74 0 0 0 10.87 2.48c.561.121 1.117.244 1.681.363 2.077.438 4.17.866 6.281 1.28.409.08.825.156 1.235.236 1.721.333 3.451.66 5.193.978.714.13 1.432.257 2.149.384 1.496.266 2.999.527 4.51.781.737.124 1.474.249 2.215.37 1.682.276 3.374.543 5.074.805.531.082 1.057.167 1.59.248 2.219.335 4.453.658 6.702.968.536.074 1.077.143 1.615.216 1.734.234 3.474.463 5.224.683.777.098 1.557.192 2.337.287 1.58.192 3.167.378 4.76.558.773.087 1.544.176 2.32.26 1.881.205 3.772.401 5.67.59.449.045.894.093 1.344.137 2.341.227 4.696.441 7.063.643.644.055 1.294.105 1.94.158a618.621 618.621 0 0 0 12.767.921c.785.049 1.567.099 2.354.145 2.133.125 4.274.24 6.424.345.3.015.598.033.899.047 2.444.116 4.901.216 7.366.306.724.026 1.451.047 2.176.071a716.38 716.38 0 0 0 7.92.218c1.758.038 3.521.069 5.287.093.776.011 1.551.024 2.329.033 2.516.027 5.038.044 7.57.044s5.055-.017 7.57-.044c.778-.008 1.552-.022 2.329-.033a707.488 707.488 0 0 0 7.865-.153c1.786-.045 3.566-.099 5.342-.158.725-.024 1.453-.045 2.176-.071 2.465-.09 4.922-.19 7.366-.306.301-.014.598-.032.899-.047 2.15-.105 4.291-.22 6.424-.345.787-.046 1.569-.096 2.354-.145a665.506 665.506 0 0 0 7.498-.508c1.764-.13 3.519-.269 5.27-.413.646-.053 1.295-.103 1.939-.158 2.366-.202 4.721-.416 7.063-.643.45-.044.895-.092 1.344-.137 1.898-.189 3.789-.385 5.67-.59.776-.085 1.547-.173 2.32-.26 1.593-.18 3.18-.366 4.76-.558.78-.095 1.56-.189 2.337-.287 1.75-.22 3.491-.448 5.224-.683.537-.073 1.079-.142 1.615-.216 2.249-.311 4.483-.633 6.702-.968.532-.08 1.058-.166 1.589-.247 1.701-.262 3.394-.529 5.076-.805.74-.121 1.477-.246 2.214-.37 1.511-.255 3.015-.515 4.511-.781.717-.128 1.436-.254 2.149-.384 1.743-.318 3.475-.645 5.196-.978.409-.079.823-.155 1.231-.235 2.112-.415 4.205-.842 6.282-1.28.564-.119 1.12-.243 1.681-.363a427.423 427.423 0 0 0 6.657-1.484c1.414-.327 2.818-.66 4.214-.997.65-.157 1.303-.313 1.95-.473 1.761-.435 3.508-.879 5.239-1.331.235-.061.475-.12.709-.182 1.956-.515 3.89-1.044 5.807-1.581.566-.159 1.124-.322 1.687-.482a350.505 350.505 0 0 0 6.012-1.772c1.315-.4 2.618-.807 3.912-1.218.569-.181 1.141-.359 1.706-.542a324.567 324.567 0 0 0 5.419-1.801l.017-.006c1.776-.61 3.525-1.234 5.259-1.865.541-.197 1.074-.398 1.611-.597a288.954 288.954 0 0 0 5.356-2.047c1.203-.474 2.392-.955 3.572-1.441.483-.199.972-.395 1.452-.596a243.082 243.082 0 0 0 4.827-2.076c.194-.086.381-.175.574-.261 1.389-.621 2.76-1.25 4.112-1.887.497-.234.985-.471 1.477-.707a208.71 208.71 0 0 0 4.667-2.309 203.763 203.763 0 0 0 3.203-1.676c.391-.209.789-.415 1.176-.626 1.417-.77 2.81-1.548 4.176-2.338.266-.154.521-.311.785-.465a166.973 166.973 0 0 0 3.248-1.948c.168-.103.345-.203.511-.307v87.849zM256 320c-118.365 0-213.333-34.535-213.333-64v-87.851c.166.103.341.202.508.304a165.13 165.13 0 0 0 3.259 1.954c.261.153.514.308.777.46 1.367.79 2.762 1.57 4.18 2.34.383.208.777.412 1.164.619a197.003 197.003 0 0 0 4.736 2.45 219.18 219.18 0 0 0 3.144 1.54c.491.236.979.473 1.474.706 1.355.638 2.728 1.268 4.12 1.891.19.085.375.173.566.257 1.585.703 3.197 1.394 4.828 2.077.477.2.964.396 1.446.594a259.574 259.574 0 0 0 8.942 3.492c.534.198 1.064.398 1.602.594 1.734.631 3.484 1.255 5.26 1.866l.017.006c1.783.612 3.594 1.211 5.419 1.801.565.183 1.138.362 1.706.542a346.467 346.467 0 0 0 9.921 2.989c.564.161 1.123.325 1.691.484 1.917.537 3.85 1.066 5.806 1.581.234.062.472.12.706.181 1.734.453 3.482.897 5.245 1.333.645.159 1.295.315 1.944.471a421.537 421.537 0 0 0 10.874 2.481c.561.121 1.117.244 1.681.363 2.077.438 4.17.866 6.281 1.28.409.08.825.156 1.235.236 1.721.333 3.451.66 5.193.978.714.13 1.432.257 2.149.384 1.496.266 2.999.527 4.51.781.737.124 1.474.249 2.215.37 1.682.276 3.374.543 5.074.805.531.082 1.057.167 1.59.248 2.219.335 4.453.658 6.702.968.533.074 1.072.142 1.607.215 1.738.235 3.483.464 5.238.684.774.097 1.55.191 2.327.286 1.583.192 3.173.378 4.769.559.769.087 1.537.175 2.309.259 1.885.206 3.781.402 5.684.591.446.044.889.093 1.336.136 2.341.227 4.696.441 7.063.643.644.055 1.294.105 1.94.158a618.621 618.621 0 0 0 12.767.921c.785.049 1.567.099 2.354.145 2.133.125 4.274.24 6.424.345.3.015.598.033.899.047 2.444.116 4.901.216 7.366.306.724.026 1.451.047 2.176.071a716.38 716.38 0 0 0 7.92.218c1.758.038 3.521.069 5.287.093.776.011 1.551.024 2.329.033 2.516.027 5.038.044 7.57.044s5.055-.017 7.57-.044c.778-.008 1.552-.022 2.329-.033a707.488 707.488 0 0 0 7.865-.153c1.786-.045 3.566-.099 5.342-.158.725-.024 1.453-.045 2.176-.071 2.465-.09 4.922-.19 7.366-.306.301-.014.598-.032.899-.047 2.15-.105 4.291-.22 6.424-.345.787-.046 1.569-.096 2.354-.145a665.506 665.506 0 0 0 7.498-.508c1.764-.13 3.519-.269 5.27-.413.646-.053 1.295-.103 1.939-.158 2.366-.202 4.722-.416 7.063-.644.447-.043.89-.092 1.336-.136 1.903-.189 3.798-.385 5.684-.591.772-.084 1.54-.172 2.309-.259a572.17 572.17 0 0 0 4.769-.559c.777-.094 1.554-.188 2.327-.286 1.755-.22 3.5-.45 5.238-.684.535-.072 1.074-.141 1.607-.215 2.249-.311 4.483-.633 6.702-.968.532-.08 1.058-.166 1.589-.247 1.701-.262 3.394-.529 5.076-.805.74-.121 1.477-.246 2.214-.37 1.511-.255 3.015-.515 4.511-.781.717-.128 1.436-.254 2.149-.384 1.743-.318 3.475-.645 5.196-.978.409-.079.823-.155 1.231-.235 2.112-.415 4.205-.842 6.282-1.28.564-.119 1.12-.243 1.681-.363a427.423 427.423 0 0 0 10.876-2.482c.647-.157 1.297-.312 1.941-.471 1.764-.436 3.513-.88 5.248-1.333.234-.061.472-.119.705-.181 1.956-.515 3.89-1.044 5.807-1.581.566-.159 1.124-.322 1.687-.482a350.505 350.505 0 0 0 6.012-1.772c1.315-.4 2.618-.807 3.912-1.218.569-.181 1.141-.359 1.706-.542a324.567 324.567 0 0 0 5.419-1.801l.017-.006c1.777-.61 3.526-1.234 5.259-1.865.54-.197 1.071-.397 1.606-.596a296.697 296.697 0 0 0 5.357-2.047 272.15 272.15 0 0 0 3.58-1.444c.482-.198.969-.394 1.447-.594a237.323 237.323 0 0 0 4.827-2.077c.194-.086.381-.175.574-.261 1.389-.621 2.76-1.25 4.112-1.887.497-.234.985-.471 1.477-.707a204.19 204.19 0 0 0 7.877-3.989c.388-.207.783-.412 1.167-.621 1.417-.77 2.812-1.549 4.178-2.339.265-.153.52-.31.783-.464a164.532 164.532 0 0 0 3.253-1.951c.167-.103.343-.202.509-.305V256c.004 29.465-94.964 64-213.329 64zm0-149.333c-118.365 0-213.333-34.535-213.333-64s94.969-64 213.333-64 213.333 34.535 213.333 64-94.968 64-213.333 64z"/></symbol><symbol id="filter" viewBox="0 0 512 512"><path fill="#008389" d="M510.477 12.346A20.001 20.001 0 0 0 492 0H20.001A20.002 20.002 0 0 0 5.858 34.142l181.179 181.179V492a20.001 20.001 0 0 0 34.143 14.143l97.926-97.925a20.001 20.001 0 0 0 5.857-14.142V215.321L506.142 34.142a20 20 0 0 0 4.335-21.796zM290.82 192.895a20.001 20.001 0 0 0-5.857 14.142V385.79l-57.926 57.925V207.037a20.001 20.001 0 0 0-5.857-14.142L68.285 40h375.431L290.82 192.895z"/></symbol><symbol id="form" viewBox="0 0 425 425"><g fill="#FFF"><path d="M385.333 17c0-9.35-7.65-17-17-17H56.667c-9.35 0-17 7.65-17 17v391c0 9.35 7.65 17 17 17h311.667c9.35 0 17-7.65 17-17V17zM73.667 34h277.667v357H73.667V34z"/><path d="M289 99.167H136c-9.35 0-17 7.65-17 17s7.65 17 17 17h153c9.35 0 17-7.65 17-17s-7.65-17-17-17zm0 90.666H136c-9.35 0-17 7.65-17 17s7.65 17 17 17h153c9.35 0 17-7.65 17-17s-7.65-17-17-17zm0 96.334H136c-9.35 0-17 7.65-17 17s7.65 17 17 17h153c9.35 0 17-7.65 17-17s-7.65-17-17-17z"/></g></symbol></svg>