<?xml version="1.0" encoding="iso-8859-1"?>
<!-- Generator: Adobe Illustrator 18.0.0, SVG Export Plug-In . SVG Version: 6.00 Build 0)  -->
<!DOCTYPE svg PUBLIC "-//W3C//DTD SVG 1.1//EN" "http://www.w3.org/Graphics/SVG/1.1/DTD/svg11.dtd">
<svg xmlns="http://www.w3.org/2000/svg" xmlns:xlink="http://www.w3.org/1999/xlink" version="1.1" id="Capa_1" x="0px" y="0px" viewBox="0 0 223.094 223.094" style="enable-background:new 0 0 223.094 223.094;" xml:space="preserve" width="512px" height="512px">
<path d="M173.975,83.234h-20.807H77.43V49.115C77.43,30.304,92.735,15,111.549,15c18.813,0,34.119,15.304,34.119,34.115  c0,4.143,3.357,7.5,7.5,7.5s7.5-3.357,7.5-7.5C160.668,22.033,138.633,0,111.549,0C84.465,0,62.43,22.033,62.43,49.115v34.119  h-13.31c-4.143,0-7.5,3.357-7.5,7.5v124.859c0,4.143,3.357,7.5,7.5,7.5h124.855c4.143,0,7.5-3.357,7.5-7.5V90.734  C181.475,86.592,178.117,83.234,173.975,83.234z M166.475,208.094H56.619V98.234H69.93h83.238h13.307V208.094z" fill="#FFFFFF"/>
<g>
</g>
<g>
</g>
<g>
</g>
<g>
</g>
<g>
</g>
<g>
</g>
<g>
</g>
<g>
</g>
<g>
</g>
<g>
</g>
<g>
</g>
<g>
</g>
<g>
</g>
<g>
</g>
<g>
</g>
</svg>
