<?xml version="1.0" encoding="iso-8859-1"?>
<!-- Generator: Adobe Illustrator 19.0.0, SVG Export Plug-In . SVG Version: 6.00 Build 0)  -->
<svg xmlns="http://www.w3.org/2000/svg" xmlns:xlink="http://www.w3.org/1999/xlink" version="1.1" id="Capa_1" x="0px" y="0px" viewBox="0 0 503.456 503.456" style="enable-background:new 0 0 503.456 503.456;" xml:space="preserve" width="512px" height="512px">
<g>
	<g>
		<g>
			<path d="M496.704,242.368c-4.432-6.16-110.208-150.64-244.976-150.64S11.184,236.208,6.752,242.368L0,251.728l6.752,9.36     c4.432,6.16,110.208,150.64,244.976,150.64s240.544-144.48,244.976-150.64l6.752-9.36L496.704,242.368z M251.728,379.728     c-99.92,0-186.608-97.024-211.712-128c25.104-30.976,111.792-128,211.712-128s186.608,97.024,211.712,128     C438.336,282.704,351.648,379.728,251.728,379.728z" fill="#FFFFFF"/>
			<path d="M251.728,155.728c-53.019,0-96,42.981-96,96s42.981,96,96,96s96-42.981,96-96     C347.675,198.731,304.725,155.781,251.728,155.728z M251.728,315.728c-35.346,0-64-28.654-64-64c0-35.346,28.654-64,64-64     c35.346,0,64,28.654,64,64C315.728,287.074,287.074,315.728,251.728,315.728z" fill="#FFFFFF"/>
			<rect x="235.728" y="235.728" width="32" height="32" fill="#FFFFFF"/>
			<rect x="411.728" y="379.728" width="32" height="32" fill="#FFFFFF"/>
			<rect x="59.728" y="379.728" width="32" height="32" fill="#FFFFFF"/>
			<rect x="411.728" y="91.728" width="32" height="32" fill="#FFFFFF"/>
			<rect x="59.728" y="91.728" width="32" height="32" fill="#FFFFFF"/>
		</g>
	</g>
</g>
<g>
</g>
<g>
</g>
<g>
</g>
<g>
</g>
<g>
</g>
<g>
</g>
<g>
</g>
<g>
</g>
<g>
</g>
<g>
</g>
<g>
</g>
<g>
</g>
<g>
</g>
<g>
</g>
<g>
</g>
</svg>
