<?xml version="1.0" standalone="no"?>
<!DOCTYPE svg PUBLIC "-//W3C//DTD SVG 1.1//EN" "http://www.w3.org/Graphics/SVG/1.1/DTD/svg11.dtd" >
<svg xmlns="http://www.w3.org/2000/svg" xmlns:xlink="http://www.w3.org/1999/xlink" version="1.1">
<metadata>
Created by FontForge 20161003 at Fri Aug 11 10:22:52 2017
 By www-data
Copyright (c) 1990 Adobe Systems Incorporated.  All Rights Reserved.NeuzeitS is a registered trademark of Linotype AG and/or its subsidiaries.
</metadata>
<defs>
<font id="NeuzeitSLT-Book" horiz-adv-x="556" >
  <font-face 
    font-family="NeuzeitS LT Book"
    font-weight="400"
    font-stretch="normal"
    units-per-em="1000"
    panose-1="2 0 5 3 4 0 0 2 0 3"
    ascent="800"
    descent="-200"
    x-height="500"
    cap-height="752"
    bbox="-181 -224 1000 978"
    underline-thickness="50"
    underline-position="-125"
    unicode-range="U+0020-FB02"
  />
<missing-glyph horiz-adv-x="278" 
 />
    <glyph glyph-name=".notdef" horiz-adv-x="278" 
 />
    <glyph glyph-name="space" unicode=" " horiz-adv-x="278" 
 />
    <glyph glyph-name="space" unicode="&#xa0;" horiz-adv-x="278" 
 />
    <glyph glyph-name="quotedbl" unicode="&#x22;" horiz-adv-x="333" 
d="M36 752h78v-252h-78v252zM219 752h78v-252h-78v252z" />
    <glyph glyph-name="numbersign" unicode="#" 
d="M323 229h-129l-32 -229h-64l32 229h-108v58h116l23 166h-108v58h116l32 229h64l-32 -229h129l32 229h64l-32 -229h108v-58h-116l-23 -166h108v-58h-116l-32 -229h-64zM354 453h-129l-23 -166h129z" />
    <glyph glyph-name="dollar" unicode="$" 
d="M252 682q-26 -2 -47 -12.5t-36 -27.5t-23 -39t-8 -46q0 -31 10 -51.5t26 -34.5t36.5 -22.5t41.5 -15.5v249zM252 344q-29 8 -63.5 20.5t-64.5 34.5t-50 57.5t-20 89.5q0 39 13 74.5t38 63.5t62 46t85 22v75h52v-75q30 -2 64 -11.5t63 -33t49.5 -63t24.5 -100.5h-84
q-1 14 -4 35.5t-14.5 42.5t-35 38t-63.5 22v-264q50 -13 89.5 -30.5t66.5 -42t41.5 -57.5t14.5 -77q0 -42 -12.5 -80t-38.5 -68t-66 -49.5t-95 -25.5v-116h-52v116q-54 3 -93 21t-64.5 47t-38.5 67.5t-16 82.5h84q1 -24 8 -48.5t22 -45t39 -35.5t59 -19v286zM304 58
q63 5 95.5 40t32.5 97q0 57 -34 89t-94 46v-272z" />
    <glyph glyph-name="percent" unicode="%" horiz-adv-x="1000" 
d="M700 774h63l-463 -808h-63zM564 173q0 48 14.5 83t38 57.5t52 33.5t56.5 11t57 -11t52 -33.5t37.5 -57.5t14.5 -83t-14.5 -83t-37.5 -57.5t-52 -33.5t-57 -11t-56.5 11t-52 33.5t-38 57.5t-14.5 83zM808 173q0 27 -4.5 50t-14.5 40t-26 27t-38 10q-23 0 -38.5 -10
t-25.5 -27t-14.5 -40t-4.5 -50t4.5 -50t14.5 -40t25.5 -27t38.5 -10q22 0 38 10t26 27t14.5 40t4.5 50zM114 567q0 48 14.5 83t38 57.5t52 33.5t56.5 11t57 -11t52 -33.5t37.5 -57.5t14.5 -83t-14.5 -83t-37.5 -57.5t-52 -33.5t-57 -11t-56.5 11t-52 33.5t-38 57.5t-14.5 83
zM358 567q0 27 -4.5 50t-14.5 40t-26 27t-38 10q-23 0 -38.5 -10t-25.5 -27t-14.5 -40t-4.5 -50t4.5 -50t14.5 -40t25.5 -27t38.5 -10q22 0 38 10t26 27t14.5 40t4.5 50z" />
    <glyph glyph-name="ampersand" unicode="&#x26;" horiz-adv-x="722" 
d="M275 581q0 -30 16 -57.5t42 -62.5q37 24 61.5 54t24.5 69q0 38 -19 60t-51 22q-29 0 -51.5 -19.5t-22.5 -65.5zM303 369q-63 -34 -98.5 -73t-35.5 -98q0 -25 8.5 -50t26 -45.5t44.5 -33.5t63 -13q54 0 94 21.5t66 53.5zM511 81q-14 -17 -34.5 -34t-47 -30.5t-58.5 -22
t-70 -8.5q-50 0 -90 16t-68 44t-43 67t-15 84q0 55 21 94t50 65t59.5 42t50.5 27q-29 42 -49 79t-20 83q0 23 8.5 48t27 46t47.5 35t70 14q37 0 64.5 -11.5t46 -30.5t27.5 -44t9 -53q0 -51 -20 -85.5t-61 -65.5l-46 -35l145 -202q15 29 26 63.5t15 63.5h78
q-3 -21 -9.5 -45.5t-16 -49.5t-21 -48t-25.5 -41l105 -146h-99z" />
    <glyph glyph-name="quotesingle" unicode="'" horiz-adv-x="278" 
d="M100 752h78v-252h-78v252z" />
    <glyph glyph-name="parenleft" unicode="(" horiz-adv-x="334" 
d="M262 -199q-25 29 -58 73.5t-63 106t-50.5 140t-20.5 174.5t20.5 174.5t50.5 140t63 106t58 73.5l60 -51q-26 -28 -56.5 -70.5t-56.5 -99t-43.5 -125t-17.5 -148.5t17.5 -148.5t43.5 -125t56.5 -99t56.5 -70.5z" />
    <glyph glyph-name="parenright" unicode=")" horiz-adv-x="334" 
d="M12 -148q26 28 56.5 70.5t56.5 99t43.5 125t17.5 148.5t-17.5 148.5t-43.5 125t-56.5 99t-56.5 70.5l60 51q25 -29 58 -73.5t63 -106t50.5 -140t20.5 -174.5t-20.5 -174.5t-50.5 -140t-63 -106t-58 -73.5z" />
    <glyph glyph-name="asterisk" unicode="*" 
d="M98 605l16 50l138 -50v147h52v-147l136 50l18 -50l-142 -47l92 -119l-44 -32l-86 123l-86 -123l-44 32l92 119z" />
    <glyph glyph-name="plus" unicode="+" horiz-adv-x="600" 
d="M271 224h-224v58h224v224h58v-224h224v-58h-224v-224h-58v224z" />
    <glyph glyph-name="comma" unicode="," horiz-adv-x="278" 
d="M113 118l79 -38l-126 -242l-52 22z" />
    <glyph glyph-name="hyphen" unicode="-" horiz-adv-x="334" 
d="M44 300h246v-76h-246v76z" />
    <glyph glyph-name="hyphen" unicode="&#xad;" horiz-adv-x="334" 
d="M44 300h246v-76h-246v76z" />
    <glyph glyph-name="period" unicode="." horiz-adv-x="278" 
d="M83 44q0 23 16.5 39.5t39.5 16.5t39.5 -16.5t16.5 -39.5t-16.5 -39.5t-39.5 -16.5t-39.5 16.5t-16.5 39.5z" />
    <glyph glyph-name="slash" unicode="/" horiz-adv-x="389" 
d="M309 766h64l-293 -780h-64z" />
    <glyph glyph-name="zero" unicode="0" 
d="M278 682q-35 0 -63.5 -17.5t-49.5 -55t-32.5 -96.5t-11.5 -143t11.5 -143.5t32.5 -97t49.5 -54.5t63.5 -17q34 0 63 17t50 54.5t32.5 97t11.5 143.5t-11.5 143t-32.5 96.5t-50 55t-63 17.5zM278 -12q-74 0 -120.5 34t-73.5 88t-37 122.5t-10 137.5t10 137.5t37 122.5
t73.5 88t120.5 34q73 0 120 -34t74 -88t37 -122.5t10 -137.5t-10 -137.5t-37 -122.5t-74 -88t-120 -34z" />
    <glyph glyph-name="one" unicode="1" 
d="M277 624q-30 -23 -69.5 -45t-77.5 -38v77q25 10 54 27t55 36.5t48 38t34 32.5h40v-752h-84v624z" />
    <glyph glyph-name="two" unicode="2" 
d="M48 71l242 267q24 26 46 52.5t39.5 53t28 53t10.5 51.5q0 54 -36 91t-102 37q-36 0 -62 -12.5t-43.5 -34.5t-26 -51t-10.5 -63h-78q1 66 20.5 111.5t51 73.5t70.5 40t79 12q54 0 95.5 -15.5t69 -43t42 -64t14.5 -78.5q0 -31 -7.5 -59.5t-23 -57t-38.5 -58t-54 -63.5
l-220 -237h344v-76h-451v71z" />
    <glyph glyph-name="three" unicode="3" 
d="M155 428l228 236h-312v76h406v-76l-210 -215l2 -2q8 2 17 2.5t17 0.5q39 0 75 -13.5t64 -40t45 -67t17 -94.5q0 -48 -15.5 -93t-45.5 -79t-75 -54.5t-105 -20.5q-49 0 -84.5 10.5t-59.5 27.5t-39 38.5t-23.5 43.5t-12 42t-5.5 35l78 6q4 -31 12.5 -55.5t25.5 -42
t43 -26.5t64 -9q37 0 66 12.5t49.5 35t31.5 53t11 65.5q0 38 -12.5 68t-34 51t-50.5 32t-63 11q-35 0 -58.5 -10t-40.5 -23l-6 4v71z" />
    <glyph glyph-name="four" unicode="4" 
d="M357 634h-2l-237 -361h239v361zM357 203h-322v67l325 482h75v-479h86v-70h-86v-203h-78v203z" />
    <glyph glyph-name="five" unicode="5" 
d="M77 740h397v-76h-328l-12 -244h2q20 29 56.5 46.5t93.5 17.5q38 0 77.5 -12.5t71.5 -41.5t52.5 -75.5t20.5 -115.5q0 -41 -13 -85t-41.5 -81t-72.5 -61t-106 -24q-47 0 -86.5 10.5t-69.5 34.5t-48.5 61.5t-22.5 91.5l84 7q3 -59 39 -97t98 -38q31 0 59 11t49.5 33t34 56
t12.5 80q0 38 -11 69t-31.5 53.5t-48.5 35t-61 12.5q-56 0 -87.5 -23t-46.5 -53h-79z" />
    <glyph glyph-name="six" unicode="6" 
d="M418 564q-11 52 -39 85t-83 33q-51 0 -83.5 -27t-51.5 -71.5t-27.5 -101.5t-10.5 -117l2 -2q9 18 23 36t35 33t48.5 24.5t62.5 9.5q52 0 93.5 -17.5t70.5 -49t44 -74.5t15 -95q0 -47 -16 -91t-46.5 -77.5t-74 -53.5t-98.5 -20q-74 0 -121 29t-74 78.5t-37.5 116.5
t-10.5 142q0 194 67 296t187 102q68 0 108.5 -24t62 -55.5t28.5 -61t8 -41.5zM433 227q0 74 -39 118.5t-115 44.5q-30 0 -57 -11.5t-46.5 -33t-31 -51.5t-11.5 -66q0 -37 9.5 -68.5t28.5 -54t46.5 -35t62.5 -12.5q39 0 67.5 14t47.5 37t28.5 54t9.5 64z" />
    <glyph glyph-name="seven" unicode="7" 
d="M50 740h450v-83q-48 -74 -92 -156.5t-79.5 -167.5t-60.5 -169.5t-36 -163.5h-92q4 34 16.5 83t32 107t45.5 121.5t56 126t63.5 120.5t68.5 106h-372v76z" />
    <glyph glyph-name="eight" unicode="8" 
d="M429 214q0 31 -10.5 59t-30 48t-47.5 32t-63 12t-63 -12t-47.5 -32t-30 -48t-10.5 -59q0 -74 41 -115t110 -41q70 0 110.5 41t40.5 115zM278 -12q-56 0 -99.5 17.5t-73.5 47t-46 68.5t-16 83q0 82 37.5 131.5t106.5 69.5v2q-56 16 -83.5 57t-27.5 96q0 40 15 75t41.5 61
t63.5 41t82 15t82 -15t63.5 -41t41.5 -61t15 -75q0 -55 -27.5 -96t-83.5 -57v-2q69 -20 106.5 -69.5t37.5 -131.5q0 -44 -16 -83t-46 -68.5t-74 -47t-99 -17.5zM396 559q0 54 -32.5 88.5t-85.5 34.5q-52 0 -85 -34.5t-33 -88.5q0 -53 31 -88.5t87 -35.5t87 35.5t31 88.5z
" />
    <glyph glyph-name="nine" unicode="9" 
d="M138 176q6 -26 15 -47.5t23.5 -37.5t35 -24.5t48.5 -8.5q51 0 83.5 27t51.5 71.5t27.5 101.5t10.5 117l-2 2q-9 -18 -23 -36t-35 -33t-48.5 -24.5t-62.5 -9.5q-53 0 -94 17.5t-70 49t-44 74.5t-15 95q0 47 16 91t46.5 77.5t74 53.5t98.5 20q73 0 120.5 -29t74.5 -78.5
t37.5 -116.5t10.5 -142q0 -194 -67 -296t-187 -102q-68 0 -108.5 24t-62 55.5t-28.5 61t-8 41.5zM423 512q0 37 -10 68.5t-28.5 54t-46 35t-62.5 12.5q-39 0 -67.5 -14t-47.5 -37t-28.5 -54t-9.5 -64q0 -74 39 -118.5t115 -44.5q30 0 57 11.5t46.5 33t31 51.5t11.5 66z" />
    <glyph glyph-name="colon" unicode=":" horiz-adv-x="278" 
d="M83 44q0 23 16.5 39.5t39.5 16.5t39.5 -16.5t16.5 -39.5t-16.5 -39.5t-39.5 -16.5t-39.5 16.5t-16.5 39.5zM83 428q0 23 16.5 39.5t39.5 16.5t39.5 -16.5t16.5 -39.5t-16.5 -39.5t-39.5 -16.5t-39.5 16.5t-16.5 39.5z" />
    <glyph glyph-name="semicolon" unicode=";" horiz-adv-x="278" 
d="M83 428q0 23 16.5 39.5t39.5 16.5t39.5 -16.5t16.5 -39.5t-16.5 -39.5t-39.5 -16.5t-39.5 16.5t-16.5 39.5zM113 118l79 -38l-126 -242l-52 22z" />
    <glyph glyph-name="semicolon" unicode="&#x37e;" horiz-adv-x="278" 
d="M83 428q0 23 16.5 39.5t39.5 16.5t39.5 -16.5t16.5 -39.5t-16.5 -39.5t-39.5 -16.5t-39.5 16.5t-16.5 39.5zM113 118l79 -38l-126 -242l-52 22z" />
    <glyph glyph-name="less" unicode="&#x3c;" horiz-adv-x="600" 
d="M47 282l506 232v-62l-435 -199l435 -199v-62l-506 232v58z" />
    <glyph glyph-name="equal" unicode="=" horiz-adv-x="600" 
d="M47 183h506v-58h-506v58zM47 381h506v-58h-506v58z" />
    <glyph glyph-name="greater" unicode="&#x3e;" horiz-adv-x="600" 
d="M482 253l-435 199v62l506 -232v-58l-506 -232v62z" />
    <glyph glyph-name="question" unicode="?" 
d="M186 44q0 23 16.5 39.5t39.5 16.5t39.5 -16.5t16.5 -39.5t-16.5 -39.5t-39.5 -16.5t-39.5 16.5t-16.5 39.5zM203 222q0 30 3 57t13 51.5t28 47t47 45.5q25 19 43.5 36.5t30.5 35.5t18 39t6 48q0 48 -29.5 81t-84.5 33q-62 0 -91 -39t-29 -101h-78q0 31 8 68t29.5 68.5
t60.5 52.5t102 21q40 0 75.5 -11.5t62.5 -34.5t42.5 -58.5t15.5 -83.5q0 -36 -8.5 -63t-24.5 -49.5t-39 -43t-51 -42.5q-24 -19 -38.5 -38.5t-22 -38t-9.5 -35.5t-2 -32v-65h-78v51z" />
    <glyph glyph-name="at" unicode="@" horiz-adv-x="800" 
d="M554 585h65l-97 -301q-7 -20 -12 -37t-5 -29t14 -15t34 -3q29 0 60.5 13.5t58 42t43.5 71.5t17 102q0 68 -25 121t-69.5 89.5t-105 55.5t-132.5 19q-73 0 -134 -27t-105 -74t-68.5 -109.5t-24.5 -132.5q0 -72 25.5 -133t70 -105.5t106 -69.5t133.5 -25q91 0 165.5 36.5
t120.5 100.5h64q-24 -44 -60.5 -79t-83 -59.5t-100.5 -37.5t-113 -13q-75 0 -144.5 25.5t-123.5 75t-86 122t-32 167.5q0 81 31 152.5t84 124t123.5 83t149.5 30.5q87 0 159 -26.5t124 -72.5t80.5 -108t28.5 -133q0 -61 -22.5 -113t-59.5 -90t-83 -59.5t-92 -21.5
q-36 0 -59.5 17.5t-26.5 53.5h-2q-24 -27 -58.5 -49t-74.5 -22q-36 0 -63 13t-45.5 34.5t-28 50.5t-9.5 62q0 54 18 108t51 97t79.5 70t102.5 27q36 0 66.5 -20t48.5 -67h2zM500 442q0 56 -26.5 80t-59.5 24q-43 0 -77 -23.5t-58 -59t-36.5 -77t-12.5 -77.5
q0 -54 26.5 -81.5t71.5 -27.5q36 0 67.5 23t55 58t36.5 78t13 83z" />
    <glyph glyph-name="A" unicode="A" horiz-adv-x="668" 
d="M291 752h86l283 -752h-95l-75 212h-312l-75 -212h-95zM335 646h-2l-127 -358h256z" />
    <glyph glyph-name="B" unicode="B" horiz-adv-x="611" 
d="M294 418q69 0 108 35.5t39 101.5q0 37 -10.5 61.5t-29.5 39t-45.5 20.5t-58.5 6h-128v-264h125zM326 76q36 0 64 11t47 29.5t28.5 43.5t9.5 53q0 22 -8.5 46t-28.5 43.5t-52 32.5t-79 13h-138v-272h157zM85 752h242q49 0 87 -14.5t64 -38.5t39.5 -56t13.5 -67
q0 -31 -5 -61t-18.5 -54.5t-37.5 -43t-61 -25.5v-2q30 -2 57.5 -14t48 -34.5t32.5 -56t12 -78.5q0 -42 -16.5 -80t-46 -66t-71 -44.5t-91.5 -16.5h-249v752z" />
    <glyph glyph-name="C" unicode="C" horiz-adv-x="833" 
d="M694 508q-14 50 -39 85t-57 56.5t-71 31t-82 9.5q-78 0 -133.5 -27.5t-91 -72.5t-51.5 -101t-16 -113q0 -56 15 -112t49 -101t90 -73t138 -28q106 0 168 56.5t86 151.5l85 -10q-12 -48 -35.5 -97t-64.5 -88.5t-101.5 -64t-146.5 -24.5q-82 0 -150.5 27t-118 77.5t-77 123
t-27.5 162.5q0 85 29 156.5t80.5 123.5t121.5 81t151 29q90 0 150.5 -25t98.5 -62.5t57.5 -81.5t27.5 -83z" />
    <glyph glyph-name="D" unicode="D" horiz-adv-x="778" 
d="M177 76h165q72 0 125 26t88.5 68.5t52.5 97.5t17 113q0 57 -16 110t-52 94t-94 66t-142 25h-144v-600zM326 752q112 0 187 -33.5t120 -86.5t63.5 -119.5t18.5 -132.5q0 -71 -22 -139t-66.5 -121.5t-111.5 -86.5t-157 -33h-265v752h233z" />
    <glyph glyph-name="E" unicode="E" 
d="M85 752h424v-76h-340v-252h330v-76h-330v-272h340v-76h-424v752z" />
    <glyph glyph-name="F" unicode="F" 
d="M85 752h424v-76h-340v-252h330v-76h-330v-348h-84v752z" />
    <glyph glyph-name="G" unicode="G" horiz-adv-x="833" 
d="M426 404h344q-1 -80 -20 -155.5t-61 -134t-108 -93.5t-162 -35q-85 0 -151.5 28.5t-112 80t-69 123t-23.5 158.5q0 75 23.5 145t70 124.5t117 87.5t163.5 33q66 0 120.5 -19.5t95 -51.5t65.5 -73.5t32 -86.5l-83 -8q-9 28 -25.5 57t-45.5 52.5t-71 38.5t-102 15
q-66 0 -116.5 -24.5t-84.5 -67.5t-51.5 -101t-17.5 -125q0 -71 20 -128t55 -97.5t84 -62.5t108 -22q72 0 120 25.5t78 65t44 86.5t18 89h-254v76z" />
    <glyph glyph-name="H" unicode="H" horiz-adv-x="722" 
d="M85 752h84v-328h384v328h84v-752h-84v348h-384v-348h-84v752z" />
    <glyph glyph-name="I" unicode="I" horiz-adv-x="278" 
d="M97 752h84v-752h-84v752z" />
    <glyph glyph-name="J" unicode="J" horiz-adv-x="444" 
d="M16 70q9 -2 17 -3.5t18.5 -2.5t24 -1.5t32.5 -0.5q91 0 129 47.5t38 134.5v432h-254v76h338v-526q0 -51 -13 -95t-42.5 -76t-77 -50.5t-116.5 -18.5q-26 0 -50 2t-44 7v75z" />
    <glyph glyph-name="K" unicode="K" horiz-adv-x="611" 
d="M85 752h84v-355h2l314 355h113l-334 -360l339 -392h-116l-316 381h-2v-381h-84v752z" />
    <glyph glyph-name="L" unicode="L" 
d="M85 752h84v-676h352v-76h-436v752z" />
    <glyph glyph-name="M" unicode="M" horiz-adv-x="944" 
d="M89 752h99l284 -634l284 634h99v-752h-84v600h-2l-270 -600h-54l-270 595h-2v-595h-84v752z" />
    <glyph glyph-name="N" unicode="N" horiz-adv-x="778" 
d="M89 752h91l423 -620h2v620h84v-752h-91l-423 620h-2v-620h-84v752z" />
    <glyph glyph-name="O" unicode="O" horiz-adv-x="890" 
d="M63 376q0 85 29 156.5t80.5 123.5t121.5 81t151 29q83 0 153 -27t121 -77.5t79.5 -123t28.5 -162.5q0 -85 -29 -156.5t-80.5 -123.5t-121.5 -81t-151 -29q-83 0 -153 27t-121 77.5t-79.5 123t-28.5 162.5zM737 376q0 57 -16 113t-51.5 101t-91 72.5t-133.5 27.5
t-133.5 -27.5t-91 -72.5t-51.5 -101t-16 -113q0 -47 16 -101.5t51 -102t90.5 -79t134.5 -31.5t134.5 31.5t90.5 79t51 102t16 101.5z" />
    <glyph glyph-name="P" unicode="P" horiz-adv-x="611" 
d="M85 752h239q116 0 181 -61.5t65 -170.5q0 -56 -19 -99t-53.5 -72t-82 -44t-103.5 -15h-143v-290h-84v752zM299 366q36 0 69 8t57.5 26.5t39.5 48t15 72.5q0 41 -13 70.5t-36 48t-55 27.5t-70 9h-137v-310h130z" />
    <glyph glyph-name="Q" unicode="Q" horiz-adv-x="890" 
d="M543 205l50 50l79 -79q35 48 50 101t15 99q0 57 -16 113t-51.5 101t-91 72.5t-133.5 27.5t-133.5 -27.5t-91 -72.5t-51.5 -101t-16 -113q0 -47 16 -101.5t51 -102t90.5 -79t134.5 -31.5q58 0 102.5 17t76.5 45zM682 66q-49 -38 -108.5 -59t-128.5 -21q-83 0 -153 27
t-121 77.5t-79.5 123t-28.5 162.5q0 85 29 156.5t80.5 123.5t121.5 81t151 29q83 0 153 -27t121 -77.5t79.5 -123t28.5 -162.5q0 -78 -24.5 -144.5t-68.5 -117.5l98 -98l-50 -50z" />
    <glyph glyph-name="R" unicode="R" horiz-adv-x="611" 
d="M316 322h-147v-322h-84v752h233q75 0 125 -18.5t79 -47.5t41 -65.5t12 -73.5q0 -51 -15 -88t-39.5 -63.5t-55 -42.5t-61.5 -23l200 -330h-103zM319 398q75 0 120.5 34.5t45.5 102.5q0 42 -14.5 69t-38.5 43t-54.5 22.5t-63.5 6.5h-145v-278h150z" />
    <glyph glyph-name="S" unicode="S" horiz-adv-x="667" 
d="M505 556q-2 23 -11.5 46.5t-30 43t-52 32t-76.5 12.5t-77 -12t-52.5 -31.5t-30.5 -44.5t-10 -52q0 -19 7 -37t25.5 -34t51 -29.5t84.5 -23.5q71 -14 122.5 -30.5t85.5 -41t50 -59t16 -83.5q0 -42 -15.5 -83t-49 -72.5t-85.5 -51t-125 -19.5q-128 0 -197 59t-75 163h85
q11 -75 60 -110.5t131 -35.5q48 0 82.5 13t56.5 33t32 45.5t10 50.5q0 31 -9.5 52t-30.5 36t-55 26t-84 22q-65 13 -113 30t-80 41t-48 58t-16 81q0 46 18 85.5t51.5 68.5t80 45.5t103.5 16.5q69 0 116 -17.5t76.5 -46.5t44 -67t20.5 -79h-86z" />
    <glyph glyph-name="T" unicode="T" 
d="M236 676h-228v76h540v-76h-228v-676h-84v676z" />
    <glyph glyph-name="U" unicode="U" horiz-adv-x="722" 
d="M85 752h84v-490q0 -51 14 -89t39 -62.5t60.5 -36.5t78.5 -12q39 0 74 12.5t61.5 38.5t41.5 67.5t15 98.5v473h84v-474q0 -74 -21.5 -129t-59 -91t-88 -54t-107.5 -18q-69 0 -120.5 19t-86 54t-52 83t-17.5 107v503z" />
    <glyph glyph-name="V" unicode="V" horiz-adv-x="612" 
d="M10 752h95l202 -635h2l202 635h91l-255 -752h-78z" />
    <glyph glyph-name="W" unicode="W" horiz-adv-x="944" 
d="M473 628h-2l-181 -628h-76l-199 752h89l148 -622h2l179 622h78l179 -627h2l148 627h89l-199 -752h-76z" />
    <glyph glyph-name="X" unicode="X" horiz-adv-x="612" 
d="M304 318l-191 -318h-103l246 382l-237 370h107l184 -309l184 309h103l-238 -370l243 -382h-109z" />
    <glyph glyph-name="Y" unicode="Y" horiz-adv-x="612" 
d="M266 307l-259 445h103l198 -370l194 370h103l-255 -445v-307h-84v307z" />
    <glyph glyph-name="Z" unicode="Z" horiz-adv-x="611" 
d="M21 70l462 606h-426v76h533v-70l-462 -606h451v-76h-558v70z" />
    <glyph glyph-name="bracketleft" unicode="[" horiz-adv-x="334" 
d="M104 782h190v-64h-112v-846h112v-64h-190v974z" />
    <glyph glyph-name="backslash" unicode="\" horiz-adv-x="389" 
d="M16 766h64l293 -780h-64z" />
    <glyph glyph-name="bracketright" unicode="]" horiz-adv-x="334" 
d="M40 -128h112v846h-112v64h190v-974h-190v64z" />
    <glyph glyph-name="asciicircum" unicode="^" horiz-adv-x="600" 
d="M47 297l224 443h58l224 -443h-64l-189 376l-189 -376h-64z" />
    <glyph glyph-name="underscore" unicode="_" horiz-adv-x="500" 
d="M0 -125v50h500v-50h-500z" />
    <glyph glyph-name="grave" unicode="`" horiz-adv-x="222" 
d="M9 740h108l88 -142h-66z" />
    <glyph glyph-name="a" unicode="a" 
d="M399 237l-132 -6q-64 -3 -99.5 -23t-35.5 -69q0 -38 30 -63.5t84 -25.5q25 0 52.5 7.5t49.5 22.5t36.5 38.5t14.5 56.5v62zM399 66h-2q-13 -23 -33 -38.5t-42.5 -24.5t-46.5 -13t-46 -4q-45 0 -78.5 12t-56.5 32.5t-34.5 47.5t-11.5 57q0 34 10 61.5t32 47t58 30.5t87 14
q42 2 82 4t82 4v38q0 24 -6 45t-20 37t-39 25t-62 9q-35 0 -58.5 -7t-38.5 -19.5t-23 -30t-12 -38.5h-77q12 84 66.5 121.5t143.5 37.5q101 0 152.5 -43.5t51.5 -124.5v-248q0 -23 2.5 -50t4.5 -48h-85v66z" />
    <glyph glyph-name="b" unicode="b" horiz-adv-x="611" 
d="M75 752h78v-339h2q8 12 21 28.5t34 31t50.5 25t71.5 10.5q39 0 80 -14.5t74.5 -45.5t55 -80t21.5 -118q0 -59 -18.5 -107.5t-50.5 -83t-76 -54t-96 -19.5q-39 0 -66.5 10.5t-47 25.5t-32 32.5t-21.5 32.5h-2v-87h-78v752zM479 248q0 49 -13 85t-35.5 59.5t-52 34.5
t-61.5 11q-31 0 -60.5 -11.5t-52.5 -35.5t-37 -60t-14 -85q0 -39 11.5 -74t33 -60.5t52.5 -40.5t70 -15t69 15.5t50 41.5t30 61t10 74z" />
    <glyph glyph-name="c" unicode="c" 
d="M443 333q-5 14 -13.5 33t-24 36.5t-39 29.5t-59.5 12q-37 0 -69 -14t-55.5 -39.5t-37 -62t-13.5 -81.5q0 -37 10 -71.5t30.5 -61t53 -42.5t77.5 -16q32 0 55.5 10t40 26.5t27.5 37.5t17 42l83 -10q-10 -32 -27 -63.5t-44 -56.5t-64.5 -40.5t-88.5 -15.5
q-62 0 -109.5 21.5t-79.5 57.5t-48.5 83.5t-16.5 99.5q0 63 21 112t56 83.5t81.5 52.5t96.5 18q41 0 77.5 -10.5t66 -31.5t49 -53.5t27.5 -77.5z" />
    <glyph glyph-name="d" unicode="d" horiz-adv-x="611" 
d="M458 87h-2q-9 -15 -21.5 -32.5t-32 -32.5t-47 -25.5t-66.5 -10.5q-52 0 -96 19.5t-76.5 54t-50.5 83t-18 107.5q0 69 21.5 118t55 80t74.5 45.5t80 14.5q42 0 71.5 -10.5t50.5 -25t34 -31t21 -28.5h2v339h78v-752h-78v87zM458 246q0 49 -14 85t-37 60t-52.5 35.5
t-60.5 11.5q-32 0 -61.5 -11t-52 -34.5t-35.5 -59.5t-13 -85q0 -39 10 -74t30 -61t50 -41.5t69 -15.5t70 15t52.5 40.5t33 60.5t11.5 74z" />
    <glyph glyph-name="e" unicode="e" 
d="M442 296q-8 69 -46.5 108.5t-106.5 39.5q-38 0 -66.5 -13.5t-47 -35t-29 -48t-12.5 -51.5h308zM513 141q-32 -71 -88 -113t-142 -42q-53 0 -96 18.5t-74 51.5t-48 78t-17 97q0 63 16.5 115t47.5 89.5t75.5 58t99.5 20.5q53 0 97 -16.5t75.5 -49.5t49 -81.5t17.5 -112.5
v-22h-394q0 -44 12.5 -76.5t33.5 -55t49 -33.5t60 -11q34 0 58.5 9.5t42 23.5t28.5 31.5t17 32.5z" />
    <glyph glyph-name="f" unicode="f" horiz-adv-x="334" 
d="M124 436h-93v64h93v143q0 30 10 51t27 33.5t38.5 18.5t44.5 6q17 0 32.5 -0.5t26.5 -2.5v-76q-10 2 -22 2.5t-25 0.5q-30 0 -42 -13.5t-12 -36.5v-126h101v-64h-101v-436h-78v436z" />
    <glyph glyph-name="g" unicode="g" horiz-adv-x="611" 
d="M458 264q0 34 -10 66.5t-30.5 57.5t-51 40.5t-72.5 15.5q-34 0 -63.5 -11.5t-51.5 -34t-34.5 -56.5t-12.5 -79q0 -42 9 -77.5t28.5 -61t49.5 -40t72 -14.5q30 0 59.5 11.5t53.5 35.5t39 60.5t15 86.5zM458 500h78v-452q0 -59 -14 -106.5t-45 -81t-80.5 -52t-119.5 -18.5
q-92 0 -149 43t-63 121l84 4q3 -15 9 -32t20.5 -32t38.5 -24.5t62 -9.5q54 0 88.5 16.5t55 45t28 66.5t7.5 81v41h-2q-14 -31 -34 -52t-43.5 -34t-49.5 -18.5t-51 -5.5q-55 0 -98 19.5t-72 54t-44.5 81.5t-15.5 101q0 58 19 105.5t51.5 81.5t76 52.5t92.5 18.5
q51 0 95.5 -25.5t73.5 -73.5h2v85z" />
    <glyph glyph-name="h" unicode="h" 
d="M403 302q0 39 -9.5 65t-24.5 42t-35 22.5t-41 6.5q-27 0 -52.5 -10.5t-45 -30.5t-31 -50t-11.5 -69v-278h-78v752h78v-337h2q26 48 65.5 70.5t93.5 22.5q22 0 51 -7t55 -26t43.5 -52.5t17.5 -86.5v-336h-78v302z" />
    <glyph glyph-name="i" unicode="i" horiz-adv-x="222" 
d="M52 693q0 25 17 42t42 17t42 -17t17 -42t-17 -42t-42 -17t-42 17t-17 42zM72 500h78v-500h-78v500z" />
    <glyph glyph-name="j" unicode="j" horiz-adv-x="222" 
d="M52 693q0 25 17 42t42 17t42 -17t17 -42t-17 -42t-42 -17t-42 17t-17 42zM-25 -140h25q38 0 55 16t17 64v560h78v-565q0 -36 -7.5 -63.5t-24.5 -45.5t-46 -27t-72 -9h-25v70z" />
    <glyph glyph-name="k" unicode="k" horiz-adv-x="500" 
d="M153 263v-263h-78v752h78v-473l224 221h107l-242 -228l246 -272h-109z" />
    <glyph glyph-name="l" unicode="l" horiz-adv-x="222" 
d="M72 752h78v-752h-78v752z" />
    <glyph glyph-name="m" unicode="m" horiz-adv-x="834" 
d="M681 321q0 63 -24.5 90t-83.5 27q-23 0 -44 -9.5t-37.5 -27.5t-26 -43t-9.5 -56v-302h-78v321q0 63 -24 90t-81 27q-24 0 -46 -9.5t-38.5 -27.5t-26 -43t-9.5 -56v-302h-78v500h77v-80h2q10 16 22.5 31.5t30 28t41 20.5t56.5 8q34 0 58 -10t40 -25t25.5 -32t14.5 -31
q11 21 24 39t31 31t42 20.5t56 7.5q81 0 122.5 -42.5t41.5 -123.5v-342h-78v321z" />
    <glyph glyph-name="n" unicode="n" 
d="M403 302q0 39 -9.5 65t-24.5 42t-35 22.5t-41 6.5q-27 0 -52.5 -10.5t-45 -30.5t-31 -50t-11.5 -69v-278h-78v500h78v-85h2q26 48 65.5 70.5t93.5 22.5q22 0 51 -7t55 -26t43.5 -52.5t17.5 -86.5v-336h-78v302z" />
    <glyph glyph-name="o" unicode="o" horiz-adv-x="612" 
d="M132 250q0 -42 12 -78t34.5 -61.5t54.5 -40t73 -14.5q40 0 72.5 14.5t55 40t34.5 61.5t12 78t-12 78t-34.5 61.5t-55 40t-72.5 14.5q-41 0 -73 -14.5t-54.5 -40t-34.5 -61.5t-12 -78zM564 250q0 -50 -16.5 -97.5t-49.5 -84.5t-81 -59.5t-111 -22.5q-68 0 -116.5 22.5
t-80 59.5t-46.5 84.5t-15 97.5t16.5 97.5t49.5 84.5t81 59.5t111 22.5q68 0 116.5 -22.5t80 -59.5t46.5 -84.5t15 -97.5z" />
    <glyph glyph-name="p" unicode="p" horiz-adv-x="611" 
d="M75 500h78v-87h2q8 12 21 28.5t34 31t50.5 25t71.5 10.5q39 0 80 -14.5t74.5 -45.5t55 -80t21.5 -118q0 -59 -18.5 -107.5t-50.5 -83t-76 -54t-96 -19.5q-33 0 -59.5 8.5t-47.5 22t-36 30.5t-24 34h-2v-291h-78v710zM479 248q0 49 -13 85t-35.5 59.5t-52 34.5t-61.5 11
q-31 0 -60.5 -11.5t-52.5 -35.5t-37 -60t-14 -85q0 -39 11.5 -74t33 -60.5t52.5 -40.5t70 -15t69 15.5t50 41.5t30 61t10 74z" />
    <glyph glyph-name="q" unicode="q" horiz-adv-x="611" 
d="M458 81h-2q-9 -17 -24 -34t-36 -30.5t-47.5 -22t-59.5 -8.5q-52 0 -96 19.5t-76.5 54t-50.5 83t-18 107.5q0 69 21.5 118t55 80t74.5 45.5t80 14.5q42 0 71.5 -10.5t50.5 -25t34 -31t21 -28.5h2v87h78v-710h-78v291zM132 248q0 -39 10 -74t30 -61t50 -41.5t69 -15.5
t70 15t52.5 40.5t33 60.5t11.5 74q0 49 -14 85t-37 60t-52.5 35.5t-60.5 11.5q-32 0 -61.5 -11t-52 -34.5t-35.5 -59.5t-13 -85z" />
    <glyph glyph-name="r" unicode="r" horiz-adv-x="334" 
d="M75 500h76v-110h2q7 20 19 41t29 38t40.5 28t55.5 11h28v-82h-25q-77 0 -112 -49.5t-35 -138.5v-238h-78v500z" />
    <glyph glyph-name="s" unicode="s" horiz-adv-x="500" 
d="M373 351q-2 17 -9 34t-21 30t-37 21t-56 8q-54 0 -87 -21t-33 -57t30.5 -55t100.5 -30q48 -8 85.5 -18.5t63 -27t39 -40t13.5 -57.5q0 -27 -11 -54.5t-36.5 -49t-66 -35t-98.5 -13.5q-60 0 -99 13.5t-63 36t-35.5 51.5t-14.5 60h78q1 -16 8 -32t22 -29t40 -21.5t62 -8.5
q29 0 54 5t43.5 15t28.5 24.5t10 33.5q0 15 -6.5 26t-23 20t-45.5 16.5t-76 15.5q-38 6 -71 16.5t-57.5 27t-38.5 41.5t-14 61t15 65t42 49.5t65 31t83 10.5q42 0 77.5 -11.5t61.5 -33t40.5 -51.5t14.5 -67h-78z" />
    <glyph glyph-name="t" unicode="t" horiz-adv-x="334" 
d="M31 500h93v146h78v-146h101v-64h-101v-307q0 -34 11 -49.5t37 -15.5q29 0 52 3v-70q-42 -3 -79 -3q-25 0 -43.5 5.5t-31 20t-18.5 38.5t-6 62v316h-93v64z" />
    <glyph glyph-name="u" unicode="u" 
d="M403 79h-2q-26 -48 -65.5 -70.5t-93.5 -22.5q-27 0 -56.5 8t-54 29t-40.5 56.5t-16 91.5v329h78v-308q0 -39 9.5 -65t24.5 -42t35 -22.5t41 -6.5q27 0 52.5 10.5t45 30.5t31 50t11.5 69v284h78v-500h-78v79z" />
    <glyph glyph-name="v" unicode="v" horiz-adv-x="500" 
d="M8 500h88l153 -388h2l157 388h84l-208 -500h-71z" />
    <glyph glyph-name="w" unicode="w" horiz-adv-x="778" 
d="M16 500h86l124 -382h2l124 382h74l127 -382h2l124 382h83l-172 -500h-77l-123 382h-2l-122 -382h-76z" />
    <glyph glyph-name="x" unicode="x" horiz-adv-x="500" 
d="M200 258l-180 242h104l132 -200l132 200h98l-184 -242l190 -258h-102l-138 206l-147 -206h-97z" />
    <glyph glyph-name="y" unicode="y" horiz-adv-x="500" 
d="M211 10l-203 490h89l153 -414h2l154 414h86l-292 -710h-85z" />
    <glyph glyph-name="z" unicode="z" horiz-adv-x="444" 
d="M28 68l291 362h-281v70h378v-68l-291 -362h291v-70h-388v68z" />
    <glyph glyph-name="braceleft" unicode="{" horiz-adv-x="334" 
d="M70 324q34 0 52 29t18 103v222q0 47 26.5 75.5t86.5 28.5h41v-58h-21q-31 0 -43 -15t-12 -43v-216q0 -68 -20.5 -103.5t-55.5 -50.5v-2q35 -15 55.5 -50.5t20.5 -103.5v-216q0 -28 12 -43t43 -15h21v-58h-41q-60 0 -86.5 28.5t-26.5 75.5v222q0 74 -18 103t-52 29v58z
" />
    <glyph glyph-name="bar" unicode="|" horiz-adv-x="222" 
d="M82 766h58v-780h-58v780z" />
    <glyph glyph-name="braceright" unicode="}" horiz-adv-x="334" 
d="M40 -134h21q31 0 43 15t12 43v216q0 68 20.5 103.5t55.5 50.5v2q-35 15 -55.5 50.5t-20.5 103.5v216q0 28 -12 43t-43 15h-21v58h41q60 0 86.5 -28.5t26.5 -75.5v-222q0 -74 18 -103t52 -29v-58q-34 0 -52 -29t-18 -103v-222q0 -47 -26.5 -75.5t-86.5 -28.5h-41v58z" />
    <glyph glyph-name="asciitilde" unicode="~" horiz-adv-x="600" 
d="M69 229q8 16 19.5 31.5t26.5 27.5t34.5 19.5t44.5 7.5q30 0 56.5 -9.5t58.5 -23.5q29 -12 54 -22.5t44 -10.5q30 0 50.5 22t37.5 48l36 -42q-8 -16 -19.5 -31.5t-26.5 -27.5t-34.5 -19.5t-44.5 -7.5q-30 0 -56.5 9.5t-58.5 23.5q-29 12 -54 22.5t-44 10.5
q-30 0 -50.5 -22t-37.5 -48z" />
    <glyph glyph-name="Euro" 
d="M447 167l84 -7q-4 -31 -17.5 -62t-38 -55.5t-62 -39.5t-89.5 -15q-100 0 -164.5 74t-81.5 211h-75l18 58h52q-1 10 -1 19v20q0 13 0.5 25.5t1.5 24.5h-71l18 58h60q10 61 30.5 111.5t50.5 86.5t70 56t90 20q63 0 103.5 -18t64 -45.5t33 -62t11.5 -67.5l-84 -7
q-3 65 -38 97.5t-91 32.5q-38 0 -64.5 -16.5t-45.5 -44.5t-30.5 -65t-17.5 -78h282l-18 -58h-270q-1 -13 -1 -25v-25v-20q0 -9 1 -19h242l-18 -58h-218q6 -44 17 -83t30.5 -68t48.5 -46.5t69 -17.5q18 0 37 6.5t35.5 20t28.5 34t18 48.5z" />
    <glyph glyph-name="Euro" unicode="&#x20ac;" 
d="M447 167l84 -7q-4 -31 -17.5 -62t-38 -55.5t-62 -39.5t-89.5 -15q-100 0 -164.5 74t-81.5 211h-75l18 58h52q-1 10 -1 19v20q0 13 0.5 25.5t1.5 24.5h-71l18 58h60q10 61 30.5 111.5t50.5 86.5t70 56t90 20q63 0 103.5 -18t64 -45.5t33 -62t11.5 -67.5l-84 -7
q-3 65 -38 97.5t-91 32.5q-38 0 -64.5 -16.5t-45.5 -44.5t-30.5 -65t-17.5 -78h282l-18 -58h-270q-1 -13 -1 -25v-25v-20q0 -9 1 -19h242l-18 -58h-218q6 -44 17 -83t30.5 -68t48.5 -46.5t69 -17.5q18 0 37 6.5t35.5 20t28.5 34t18 48.5z" />
    <glyph glyph-name="quotesinglbase" unicode="&#x201a;" horiz-adv-x="278" 
d="M142 104l80 -37l-115 -229l-51 24z" />
    <glyph glyph-name="florin" unicode="&#x192;" 
d="M71 -134h26q19 0 33 4.5t24 16t16 30t9 46.5l48 387h-96l6 52h96l31 231q8 56 45.5 87.5t103.5 31.5h41l-9 -76h-24q-18 0 -31 -3t-22 -12.5t-15 -27.5t-10 -47l-25 -184h107l-6 -52h-107l-51 -398q-6 -50 -19 -81.5t-32.5 -49.5t-46 -24.5t-59.5 -6.5h-42z" />
    <glyph glyph-name="quotedblbase" unicode="&#x201e;" 
d="M380 104l80 -37l-115 -229l-51 24zM182 104l80 -37l-115 -229l-51 24z" />
    <glyph glyph-name="ellipsis" unicode="&#x2026;" horiz-adv-x="1000" 
d="M777 44q0 23 16.5 39.5t39.5 16.5t39.5 -16.5t16.5 -39.5t-16.5 -39.5t-39.5 -16.5t-39.5 16.5t-16.5 39.5zM444 44q0 23 16.5 39.5t39.5 16.5t39.5 -16.5t16.5 -39.5t-16.5 -39.5t-39.5 -16.5t-39.5 16.5t-16.5 39.5zM111 44q0 23 16.5 39.5t39.5 16.5t39.5 -16.5
t16.5 -39.5t-16.5 -39.5t-39.5 -16.5t-39.5 16.5t-16.5 39.5z" />
    <glyph glyph-name="dagger" unicode="&#x2020;" 
d="M239 456h-171v76h171v220h78v-220h171v-76h-171v-577h-78v577z" />
    <glyph glyph-name="daggerdbl" unicode="&#x2021;" 
d="M239 483h-171v76h171v193h78v-193h171v-76h-171v-335h171v-76h-171v-193h-78v193h-171v76h171v335z" />
    <glyph glyph-name="circumflex" unicode="&#x2c6;" horiz-adv-x="222" 
d="M110 691l-66 -93h-79l99 142h92l101 -142h-81z" />
    <glyph glyph-name="perthousand" unicode="&#x2030;" horiz-adv-x="1000" 
d="M543 774h63l-503 -808h-63zM696 165q0 38 10.5 70.5t29.5 56t46.5 37t61.5 13.5t61.5 -13.5t46.5 -37t29.5 -56t10.5 -70.5t-10.5 -70.5t-29.5 -56t-46.5 -37t-61.5 -13.5t-61.5 13.5t-46.5 37t-29.5 56t-10.5 70.5zM920 165q0 61 -22 93t-54 32t-54 -32t-22 -93t22 -93
t54 -32t54 32t22 93zM232 575q0 61 -22 93t-54 32t-54 -32t-22 -93t22 -93t54 -32t54 32t22 93zM8 575q0 38 10.5 70.5t29.5 56t46.5 37t61.5 13.5t61.5 -13.5t46.5 -37t29.5 -56t10.5 -70.5t-10.5 -70.5t-29.5 -56t-46.5 -37t-61.5 -13.5t-61.5 13.5t-46.5 37t-29.5 56
t-10.5 70.5zM342 165q0 38 10.5 70.5t29.5 56t46.5 37t61.5 13.5t61.5 -13.5t46.5 -37t29.5 -56t10.5 -70.5t-10.5 -70.5t-29.5 -56t-46.5 -37t-61.5 -13.5t-61.5 13.5t-46.5 37t-29.5 56t-10.5 70.5zM566 165q0 61 -22 93t-54 32t-54 -32t-22 -93t22 -93t54 -32t54 32
t22 93z" />
    <glyph glyph-name="Scaron" unicode="&#x160;" horiz-adv-x="667" 
d="M505 556q-2 23 -11.5 46.5t-30 43t-52 32t-76.5 12.5t-77 -12t-52.5 -31.5t-30.5 -44.5t-10 -52q0 -19 7 -37t25.5 -34t51 -29.5t84.5 -23.5q71 -14 122.5 -30.5t85.5 -41t50 -59t16 -83.5q0 -42 -15.5 -83t-49 -72.5t-85.5 -51t-125 -19.5q-128 0 -197 59t-75 163h85
q11 -75 60 -110.5t131 -35.5q48 0 82.5 13t56.5 33t32 45.5t10 50.5q0 31 -9.5 52t-30.5 36t-55 26t-84 22q-65 13 -113 30t-80 41t-48 58t-16 81q0 46 18 85.5t51.5 68.5t80 45.5t103.5 16.5q69 0 116 -17.5t76.5 -46.5t44 -67t20.5 -79h-86zM188 932h81l66 -93l66 93h79
l-99 -142h-92z" />
    <glyph glyph-name="guilsinglleft" unicode="&#x2039;" horiz-adv-x="278" 
d="M49 264l110 180h70l-112 -180l109 -184h-70z" />
    <glyph glyph-name="OE" unicode="&#x152;" horiz-adv-x="1000" 
d="M602 388q0 143 -61 222.5t-168 79.5q-54 0 -96 -23t-71.5 -63.5t-44.5 -96t-15 -119.5q0 -83 16 -144t46 -101.5t72 -60.5t94 -20t94 23t72 65t46 102.5t16 135.5zM602 118h-2q-20 -37 -46 -62t-56 -40.5t-62 -22.5t-62 -7q-84 0 -144.5 33t-99 87t-56.5 124.5t-18 145.5
q0 108 28.5 182t74.5 120.5t102.5 67t112.5 20.5q55 0 93.5 -14t65 -33.5t42.5 -41t25 -37.5h2v112h351v-76h-267v-252h263v-76h-263v-272h267v-76h-351v118z" />
    <glyph glyph-name="Zcaron" horiz-adv-x="611" 
d="M21 70l462 606h-426v76h533v-70l-462 -606h451v-76h-558v70zM160 932h81l66 -93l66 93h79l-99 -142h-92z" />
    <glyph glyph-name="Zcaron" unicode="&#x17d;" horiz-adv-x="611" 
d="M21 70l462 606h-426v76h533v-70l-462 -606h451v-76h-558v70zM160 932h81l66 -93l66 93h79l-99 -142h-92z" />
    <glyph glyph-name="quoteleft" unicode="&#x2018;" horiz-adv-x="278" 
d="M171 766l51 -24l-86 -242l-80 37z" />
    <glyph glyph-name="quoteright" unicode="&#x2019;" horiz-adv-x="278" 
d="M142 766l80 -37l-115 -229l-51 24z" />
    <glyph glyph-name="quotedblleft" unicode="&#x201c;" 
d="M211 766l51 -24l-86 -242l-80 37zM409 766l51 -24l-86 -242l-80 37z" />
    <glyph glyph-name="quotedblright" unicode="&#x201d;" 
d="M380 766l80 -37l-115 -229l-51 24zM182 766l80 -37l-115 -229l-51 24z" />
    <glyph glyph-name="bullet" unicode="&#x2022;" horiz-adv-x="500" 
d="M62 376q0 39 14.5 73t40 59.5t60 40.5t73.5 15t73 -15t59.5 -40.5t40.5 -59.5t15 -73t-15 -73.5t-40.5 -60t-59.5 -40t-73 -14.5t-73.5 14.5t-60 40t-40 60t-14.5 73.5z" />
    <glyph glyph-name="endash" unicode="&#x2013;" horiz-adv-x="500" 
d="M0 297h500v-70h-500v70z" />
    <glyph glyph-name="emdash" unicode="&#x2014;" horiz-adv-x="1000" 
d="M0 297h1000v-70h-1000v70z" />
    <glyph glyph-name="tilde" unicode="&#x2dc;" horiz-adv-x="222" 
d="M-59 606q6 50 31 80t73 30q21 0 40 -5t37 -12q17 -7 33.5 -14t30.5 -7q24 0 33.5 16t10.5 30h51q-6 -50 -31 -80t-73 -30q-21 0 -40 5t-37 12q-17 7 -33.5 14t-30.5 7q-24 0 -33.5 -16t-10.5 -30h-51z" />
    <glyph glyph-name="trademark" unicode="&#x2122;" horiz-adv-x="990" 
d="M784 700h-2l-143 -360h-36l-143 360h-2v-360h-58v412h95l128 -323l124 323h95v-412h-58v360zM144 700h-132v52h322v-52h-132v-360h-58v360z" />
    <glyph glyph-name="scaron" unicode="&#x161;" horiz-adv-x="500" 
d="M373 351q-2 17 -9 34t-21 30t-37 21t-56 8q-54 0 -87 -21t-33 -57t30.5 -55t100.5 -30q48 -8 85.5 -18.5t63 -27t39 -40t13.5 -57.5q0 -27 -11 -54.5t-36.5 -49t-66 -35t-98.5 -13.5q-60 0 -99 13.5t-63 36t-35.5 51.5t-14.5 60h78q1 -16 8 -32t22 -29t40 -21.5t62 -8.5
q29 0 54 5t43.5 15t28.5 24.5t10 33.5q0 15 -6.5 26t-23 20t-45.5 16.5t-76 15.5q-38 6 -71 16.5t-57.5 27t-38.5 41.5t-14 61t15 65t42 49.5t65 31t83 10.5q42 0 77.5 -11.5t61.5 -33t40.5 -51.5t14.5 -67h-78zM104 740h81l66 -93l66 93h79l-99 -142h-92z" />
    <glyph glyph-name="guilsinglright" unicode="&#x203a;" horiz-adv-x="278" 
d="M161 260l-109 184h70l107 -184l-110 -180h-70z" />
    <glyph glyph-name="oe" unicode="&#x153;" horiz-adv-x="944" 
d="M442 255q0 94 -42.5 141.5t-109.5 47.5q-38 0 -67 -14.5t-49.5 -40t-31 -61.5t-10.5 -78q0 -97 42.5 -145.5t110.5 -48.5q48 0 79 21t48 52t23.5 65.5t6.5 60.5zM892 159q-11 -33 -30 -64.5t-46.5 -55.5t-63 -38.5t-80.5 -14.5q-74 0 -119.5 28.5t-76.5 82.5
q-29 -51 -73.5 -81t-119.5 -30q-56 0 -99.5 19.5t-73.5 54.5t-46 83.5t-16 106.5q0 50 16.5 97.5t48 84.5t77 59.5t103.5 22.5q41 0 71.5 -10t53 -25.5t38 -36t26.5 -41.5q15 24 32.5 44.5t41 35.5t53.5 24t69 9q43 0 82.5 -14.5t69.5 -46t48 -81.5t18 -120v-20h-376
q0 -31 6 -62t22.5 -56.5t45.5 -41.5t74 -16q65 0 97 31t46 81zM812 296q-5 69 -42.5 108.5t-97.5 39.5q-38 0 -64 -13t-44 -34t-28 -47.5t-15 -53.5h291z" />
    <glyph glyph-name="zcaron" horiz-adv-x="444" 
d="M28 68l291 362h-281v70h378v-68l-291 -362h291v-70h-388v68zM76 740h81l66 -93l66 93h79l-99 -142h-92z" />
    <glyph glyph-name="zcaron" unicode="&#x17e;" horiz-adv-x="444" 
d="M28 68l291 362h-281v70h378v-68l-291 -362h291v-70h-388v68zM76 740h81l66 -93l66 93h79l-99 -142h-92z" />
    <glyph glyph-name="Ydieresis" unicode="&#x178;" horiz-adv-x="612" 
d="M266 307l-259 445h103l198 -370l194 370h103l-255 -445v-307h-84v307zM147 852q0 23 16.5 39.5t39.5 16.5t39.5 -16.5t16.5 -39.5t-16.5 -39.5t-39.5 -16.5t-39.5 16.5t-16.5 39.5zM353 852q0 23 16.5 39.5t39.5 16.5t39.5 -16.5t16.5 -39.5t-16.5 -39.5t-39.5 -16.5
t-39.5 16.5t-16.5 39.5z" />
    <glyph glyph-name="exclamdown" unicode="&#xa1;" horiz-adv-x="334" 
d="M111 498q0 23 16.5 39.5t39.5 16.5t39.5 -16.5t16.5 -39.5t-16.5 -39.5t-39.5 -16.5t-39.5 16.5t-16.5 39.5zM128 371h78v-581h-78v581z" />
    <glyph glyph-name="cent" unicode="&#xa2;" 
d="M261 -12q-55 6 -96.5 29t-69.5 58.5t-42 80t-14 92.5q0 58 18 104.5t48 80t70.5 53.5t85.5 25v69h46v-66q39 -2 73.5 -13t62 -32.5t46 -53t25.5 -74.5l-80 -8q-5 14 -13 32t-22 35t-36.5 29.5t-55.5 14.5v-386q29 2 50 12.5t36 26t25 35.5t16 40l83 -10
q-9 -31 -25.5 -61.5t-41.5 -55t-60.5 -40t-82.5 -17.5v-111h-46v111zM261 440q-60 -12 -99 -62.5t-39 -130.5q0 -34 8 -65.5t25 -57t43 -42.5t62 -23v381z" />
    <glyph glyph-name="sterling" unicode="&#xa3;" 
d="M38 402h84q-29 42 -38 81t-9 68q0 42 16.5 79t45 64t68 42.5t84.5 15.5q63 0 104.5 -18t66 -45.5t34.5 -62t12 -67.5l-84 -6q-4 64 -38 96.5t-90 32.5q-60 0 -94.5 -35.5t-34.5 -96.5q0 -14 2.5 -28.5t8 -31.5t14.5 -38.5t23 -49.5h211v-52h-191q5 -19 8.5 -38.5
t3.5 -40.5q0 -32 -8.5 -59t-23 -50t-32.5 -42.5t-37 -37.5l2 -2q14 5 31 10t54 5q23 0 44 -4.5t47 -11.5q20 -5 39.5 -10t41.5 -5q25 0 51 9t42 23l25 -75q-14 -9 -44 -21t-80 -12q-27 0 -53 6t-44 11q-12 4 -28 7.5t-32 6.5t-30.5 4.5t-24.5 1.5q-40 0 -71.5 -12.5
t-46.5 -26.5l-32 69q32 14 57 37t41.5 49.5t25 55t8.5 53.5q0 32 -5.5 56t-13.5 44h-110v52z" />
    <glyph glyph-name="currency" unicode="&#xa4;" 
d="M462 370q0 39 -15 74t-40 60.5t-58.5 40.5t-70.5 15t-70.5 -15t-58.5 -40.5t-40 -60.5t-15 -74t15 -74t40 -60.5t58.5 -40.5t70.5 -15t70.5 15t58.5 40.5t40 60.5t15 74zM84 217q-26 31 -40 70t-14 83t14 83t40 70l-56 56l41 41l56 -56q32 26 70.5 40t82.5 14t83 -14
t70 -40l56 56l41 -41l-56 -56q26 -32 40 -70.5t14 -82.5q0 -43 -14 -82t-40 -71l56 -56l-41 -41l-56 56q-32 -26 -70.5 -40t-82.5 -14t-82.5 14t-70.5 40l-56 -56l-41 41z" />
    <glyph glyph-name="yen" unicode="&#xa5;" 
d="M239 165h-147v58h147v76l-3 5h-144v58h114l-199 378h100l171 -364l171 364h100l-199 -378h114v-58h-144l-3 -5v-76h147v-58h-147v-165h-78v165z" />
    <glyph glyph-name="brokenbar" unicode="&#xa6;" horiz-adv-x="222" 
d="M82 766h58v-292h-58v292zM82 278h58v-292h-58v292z" />
    <glyph glyph-name="section" unicode="&#xa7;" 
d="M411 278q0 48 -35.5 81t-101.5 33q-32 0 -56.5 -9.5t-40.5 -25.5t-24 -37.5t-8 -44.5q0 -22 7.5 -43t23.5 -37.5t41.5 -27t60.5 -10.5q61 0 97 33.5t36 87.5zM391 593q-5 57 -33.5 80t-77.5 23q-32 0 -53.5 -10.5t-35 -26.5t-19 -34t-5.5 -34q0 -35 14 -57t37 -36
t52.5 -22.5t60.5 -17t60.5 -20t52.5 -31t37 -49.5t14 -76q0 -32 -11 -60.5t-28.5 -50.5t-40 -36.5t-46.5 -17.5v-2q58 -16 84.5 -57t26.5 -90q0 -43 -14.5 -78.5t-41.5 -60.5t-64.5 -39t-82.5 -14q-55 0 -92 13.5t-60.5 37.5t-34.5 56t-14 68h84q0 -27 10 -47t25.5 -32.5
t35 -19t39.5 -6.5q63 0 94.5 31t31.5 78q0 36 -14.5 57.5t-38 35t-53.5 21.5t-61.5 16t-61.5 19.5t-53.5 32t-38 52.5t-14.5 82q0 61 33.5 104.5t91.5 58.5v2q-52 15 -77.5 55.5t-25.5 99.5q0 35 13.5 66.5t39 55.5t62.5 38.5t84 14.5q87 0 138.5 -46t54.5 -127h-84z" />
    <glyph glyph-name="dieresis" unicode="&#xa8;" horiz-adv-x="222" 
d="M-48 660q0 23 16.5 39.5t39.5 16.5t39.5 -16.5t16.5 -39.5t-16.5 -39.5t-39.5 -16.5t-39.5 16.5t-16.5 39.5zM158 660q0 23 16.5 39.5t39.5 16.5t39.5 -16.5t16.5 -39.5t-16.5 -39.5t-39.5 -16.5t-39.5 16.5t-16.5 39.5z" />
    <glyph glyph-name="copyright" unicode="&#xa9;" horiz-adv-x="800" 
d="M732 376q0 73 -25.5 135t-70 107t-105.5 70.5t-131 25.5q-71 0 -131.5 -25.5t-105 -70.5t-70 -107t-25.5 -135t25.5 -135t70 -107t105 -70.5t131.5 -25.5q70 0 131 25.5t105.5 70.5t70 107t25.5 135zM10 376q0 81 30.5 152t83.5 124t124 83.5t152 30.5t152 -30.5
t124 -83.5t83.5 -124t30.5 -152t-30.5 -152t-83.5 -124t-124 -83.5t-152 -30.5t-152 30.5t-124 83.5t-83.5 124t-30.5 152zM608 299q-16 -75 -68.5 -120.5t-126.5 -45.5q-54 0 -98 19t-74.5 52t-47 77.5t-16.5 96.5q0 53 15.5 97.5t45.5 77t73.5 51t98.5 18.5
q38 0 71.5 -10.5t60 -31.5t44 -51.5t22.5 -69.5h-61q-10 46 -45.5 78.5t-90.5 32.5q-44 0 -76.5 -14t-55 -39.5t-33.5 -60.5t-11 -77q0 -43 11.5 -79t34 -61.5t55.5 -39.5t77 -14q54 0 90 33t44 81h61z" />
    <glyph glyph-name="ordfeminine" unicode="&#xaa;" horiz-adv-x="361" 
d="M261 595l-98 -4q-12 0 -24.5 -3t-22 -9t-16 -16t-6.5 -25q0 -29 21 -43t52 -14q16 0 33 4.5t30.5 14t22 23.5t8.5 34v38zM319 509q0 -17 2 -31.5t4 -28.5h-61v40h-2q-17 -29 -49 -38.5t-64 -9.5q-23 0 -43 6.5t-36 18t-25 28.5t-9 38q0 42 27 66.5t94 26.5l104 4v26
q0 28 -17 49.5t-63 21.5q-45 0 -63 -16.5t-23 -40.5h-58q8 51 46 74t99 23q70 0 103.5 -26.5t33.5 -76.5v-154z" />
    <glyph glyph-name="guillemotleft" unicode="&#xab;" 
d="M101 264l110 180h70l-112 -180l109 -184h-70zM275 264l110 180h70l-112 -180l109 -184h-70z" />
    <glyph glyph-name="logicalnot" unicode="&#xac;" horiz-adv-x="600" 
d="M495 323h-448v58h506v-273h-58v215z" />
    <glyph glyph-name="registered" unicode="&#xae;" horiz-adv-x="800" 
d="M732 376q0 73 -25.5 135t-70 107t-105.5 70.5t-131 25.5q-71 0 -131.5 -25.5t-105 -70.5t-70 -107t-25.5 -135t25.5 -135t70 -107t105 -70.5t131.5 -25.5q70 0 131 25.5t105.5 70.5t70 107t25.5 135zM10 376q0 81 30.5 152t83.5 124t124 83.5t152 30.5t152 -30.5
t124 -83.5t83.5 -124t30.5 -152t-30.5 -152t-83.5 -124t-124 -83.5t-152 -30.5t-152 30.5t-124 83.5t-83.5 124t-30.5 152zM408 396q29 0 51.5 3t38.5 11.5t24 23.5t8 40t-7 41t-20.5 25t-32.5 12.5t-43 3.5h-121v-160h102zM401 344h-95v-197h-58v461h181q81 0 120 -32
t39 -98q0 -32 -10 -55.5t-27 -40t-39 -25.5t-45 -12l130 -198h-70z" />
    <glyph glyph-name="macron" unicode="&#xaf;" horiz-adv-x="222" 
d="M-26 691h274v-58h-274v58z" />
    <glyph glyph-name="macron" unicode="&#x2c9;" horiz-adv-x="222" 
d="M-26 691h274v-58h-274v58z" />
    <glyph glyph-name="degree" unicode="&#xb0;" horiz-adv-x="400" 
d="M298 608q0 19 -8 37t-21.5 31.5t-31.5 21.5t-37 8t-37 -8t-31.5 -21.5t-21.5 -31.5t-8 -37t8 -37t21.5 -31.5t31.5 -21.5t37 -8t37 8t31.5 21.5t21.5 31.5t8 37zM56 608q0 30 11 56t30.5 45.5t46 31t56.5 11.5t56 -11.5t45.5 -31t31 -45.5t11.5 -56t-11.5 -56.5t-31 -46
t-45.5 -30.5t-56 -11t-56.5 11t-46 30.5t-30.5 46t-11 56.5z" />
    <glyph glyph-name="plusminus" unicode="&#xb1;" horiz-adv-x="600" 
d="M47 58h506v-58h-506v58zM271 506h58v-176h224v-58h-224v-175h-58v175h-224v58h224v176z" />
    <glyph glyph-name="twosuperior" unicode="&#xb2;" horiz-adv-x="361" 
d="M33 358l153 145q32 30 55 60.5t23 65.5q0 30 -20 47.5t-61 17.5q-49 0 -68.5 -24.5t-20.5 -60.5h-58q1 40 14 67.5t34 44t48 24t54 7.5q37 0 63.5 -9t44 -25t26 -36.5t8.5 -42.5q0 -45 -20 -82.5t-62 -76.5l-132 -122h214v-58h-295v58z" />
    <glyph glyph-name="threesuperior" unicode="&#xb3;" horiz-adv-x="361" 
d="M100 567l137 133h-191v52h264v-52l-132 -127v-2q6 2 13.5 3t15.5 1q20 0 41.5 -8t39 -24t29 -40.5t11.5 -56.5q0 -29 -9 -55.5t-28.5 -46.5t-49 -32t-70.5 -12q-40 0 -67.5 8.5t-44.5 24t-26 37t-12 47.5l58 4q1 -14 6.5 -26.5t16 -22t27 -15t41.5 -5.5q44 0 69 23.5
t25 64.5q0 44 -27.5 66.5t-67.5 22.5q-44 0 -64 -14l-5 2v50z" />
    <glyph glyph-name="acute" unicode="&#xb4;" horiz-adv-x="222" 
d="M105 740h108l-130 -142h-66z" />
    <glyph glyph-name="mu" unicode="&#xb5;" 
d="M403 79h-2q-26 -48 -65.5 -70.5t-93.5 -22.5q-31 0 -51.5 10t-37.5 30v-236h-78v710h78v-308q0 -39 9.5 -65t24.5 -42t35 -22.5t41 -6.5q27 0 52.5 10.5t45 30.5t31 50t11.5 69v284h78v-500h-78v79z" />
    <glyph glyph-name="mu" unicode="&#x3bc;" 
d="M403 79h-2q-26 -48 -65.5 -70.5t-93.5 -22.5q-31 0 -51.5 10t-37.5 30v-236h-78v710h78v-308q0 -39 9.5 -65t24.5 -42t35 -22.5t41 -6.5q27 0 52.5 10.5t45 30.5t31 50t11.5 69v284h78v-500h-78v79z" />
    <glyph glyph-name="paragraph" unicode="&#xb6;" horiz-adv-x="600" 
d="M438 700h-100v-910h-72v580q-45 0 -83.5 13.5t-66.5 38t-43.5 59.5t-15.5 77q0 48 16 84.5t44.5 60.5t69 36.5t89.5 12.5h234v-962h-72v910z" />
    <glyph glyph-name="periodcentered" unicode="&#xb7;" horiz-adv-x="278" 
d="M80 327q0 25 17 42t42 17t42 -17t17 -42t-17 -42t-42 -17t-42 17t-17 42z" />
    <glyph glyph-name="periodcentered" unicode="&#x2219;" horiz-adv-x="278" 
d="M80 327q0 25 17 42t42 17t42 -17t17 -42t-17 -42t-42 -17t-42 17t-17 42z" />
    <glyph glyph-name="cedilla" unicode="&#xb8;" horiz-adv-x="222" 
d="M38 -87l63 87h48l-46 -62h2q13 5 38 5q32 0 53.5 -22t21.5 -51q0 -25 -11 -43t-28.5 -29t-39 -16.5t-43.5 -5.5q-30 0 -54 8.5t-38 13.5l16 43q12 -8 29 -13.5t36 -5.5q23 0 39 8.5t16 30.5q0 26 -14.5 34t-29.5 8q-23 0 -41 -11z" />
    <glyph glyph-name="onesuperior" unicode="&#xb9;" horiz-adv-x="361" 
d="M170 664q-18 -14 -43.5 -27t-54.5 -22v56q17 6 35.5 16t36 22t31.5 23.5t22 19.5h37v-452h-64v364z" />
    <glyph glyph-name="ordmasculine" unicode="&#xba;" horiz-adv-x="398" 
d="M199 720q-51 0 -80.5 -32.5t-29.5 -83.5t29.5 -84t80.5 -33t80.5 33t29.5 84t-29.5 83.5t-80.5 32.5zM199 766q44 0 76 -13.5t52.5 -36t30 -52t9.5 -60.5q0 -32 -11 -61t-32 -52t-52.5 -36.5t-72.5 -13.5q-44 0 -76 13.5t-52.5 36.5t-30 52t-9.5 61q0 31 11 60.5t32 52
t52.5 36t72.5 13.5z" />
    <glyph glyph-name="guillemotright" unicode="&#xbb;" 
d="M387 260l-109 184h70l107 -184l-110 -180h-70zM213 260l-109 184h70l107 -184l-110 -180h-70z" />
    <glyph glyph-name="onequarter" unicode="&#xbc;" horiz-adv-x="834" 
d="M138 664q-18 -14 -43.5 -27t-54.5 -22v56q17 6 35.5 16t36 22t31.5 23.5t22 19.5h37v-452h-64v364zM595 752h67l-462 -764h-67zM677 364h-2l-140 -197h142v197zM677 109h-207v53l209 290h62v-285h53v-58h-53v-109h-64v109z" />
    <glyph glyph-name="onehalf" unicode="&#xbd;" horiz-adv-x="834" 
d="M499 58l153 145q32 30 55 60.5t23 65.5q0 30 -20 47.5t-61 17.5q-49 0 -68.5 -24.5t-20.5 -60.5h-58q1 40 14 67.5t34 44t48 24t54 7.5q37 0 63.5 -9t44 -25t26 -36.5t8.5 -42.5q0 -45 -20 -82.5t-62 -76.5l-132 -122h214v-58h-295v58zM138 664q-18 -14 -43.5 -27
t-54.5 -22v56q17 6 35.5 16t36 22t31.5 23.5t22 19.5h37v-452h-64v364zM555 752h67l-462 -764h-67z" />
    <glyph glyph-name="threequarters" unicode="&#xbe;" horiz-adv-x="834" 
d="M119 567l137 133h-191v52h264v-52l-132 -127v-2q6 2 13.5 3t15.5 1q20 0 41.5 -8t39 -24t29 -40.5t11.5 -56.5q0 -29 -9 -55.5t-28.5 -46.5t-49 -32t-70.5 -12q-40 0 -67.5 8.5t-44.5 24t-26 37t-12 47.5l58 4q1 -14 6.5 -26.5t16 -22t27 -15t41.5 -5.5q44 0 69 23.5
t25 64.5q0 44 -27.5 66.5t-67.5 22.5q-44 0 -64 -14l-5 2v50zM645 752h67l-462 -764h-67zM677 109h-207v53l209 290h62v-285h53v-58h-53v-109h-64v109zM677 364h-2l-140 -197h142v197z" />
    <glyph glyph-name="questiondown" unicode="&#xbf;" 
d="M258 498q0 23 16.5 39.5t39.5 16.5t39.5 -16.5t16.5 -39.5t-16.5 -39.5t-39.5 -16.5t-39.5 16.5t-16.5 39.5zM353 320q0 -30 -3.5 -57t-13 -51.5t-27.5 -47.5t-47 -45q-26 -20 -44.5 -37t-30.5 -35t-17.5 -39t-5.5 -48q0 -48 29.5 -81t84.5 -33q62 0 91 39t29 101h78
q0 -31 -8 -68t-29.5 -68.5t-60.5 -52.5t-102 -21q-40 0 -75.5 11.5t-62.5 34.5t-42.5 58.5t-15.5 83.5q0 36 8.5 63t24.5 49.5t38.5 42.5t51.5 43q24 19 38 38.5t21.5 38t10 35.5t2.5 32v65h78v-51z" />
    <glyph glyph-name="Agrave" unicode="&#xc0;" horiz-adv-x="668" 
d="M291 752h86l283 -752h-95l-75 212h-312l-75 -212h-95zM335 646h-2l-127 -358h256zM187 932h108l88 -142h-66z" />
    <glyph glyph-name="Aacute" unicode="&#xc1;" horiz-adv-x="668" 
d="M291 752h86l283 -752h-95l-75 212h-312l-75 -212h-95zM335 646h-2l-127 -358h256zM363 932h108l-130 -142h-66z" />
    <glyph glyph-name="Acircumflex" unicode="&#xc2;" horiz-adv-x="668" 
d="M291 752h86l283 -752h-95l-75 212h-312l-75 -212h-95zM335 646h-2l-127 -358h256zM333 883l-66 -93h-79l99 142h92l101 -142h-81z" />
    <glyph glyph-name="Atilde" unicode="&#xc3;" horiz-adv-x="668" 
d="M291 752h86l283 -752h-95l-75 212h-312l-75 -212h-95zM335 646h-2l-127 -358h256zM164 798q6 50 31 80t73 30q21 0 40 -5t37 -12q17 -7 33.5 -14t30.5 -7q24 0 33.5 16t10.5 30h51q-6 -50 -31 -80t-73 -30q-21 0 -40 5t-37 12q-17 7 -33.5 14t-30.5 7q-24 0 -33.5 -16
t-10.5 -30h-51z" />
    <glyph glyph-name="Adieresis" unicode="&#xc4;" horiz-adv-x="668" 
d="M291 752h86l283 -752h-95l-75 212h-312l-75 -212h-95zM335 646h-2l-127 -358h256zM175 852q0 23 16.5 39.5t39.5 16.5t39.5 -16.5t16.5 -39.5t-16.5 -39.5t-39.5 -16.5t-39.5 16.5t-16.5 39.5zM381 852q0 23 16.5 39.5t39.5 16.5t39.5 -16.5t16.5 -39.5t-16.5 -39.5
t-39.5 -16.5t-39.5 16.5t-16.5 39.5z" />
    <glyph glyph-name="Aring" unicode="&#xc5;" horiz-adv-x="668" 
d="M291 752h86l283 -752h-95l-75 212h-312l-75 -212h-95zM335 646h-2l-127 -358h256zM396 876q0 26 -18 44t-44 18t-44 -18t-18 -44t18 -44t44 -18t44 18t18 44zM232 876q0 21 8 39.5t22 32.5t32.5 22t39.5 8t39.5 -8t32.5 -22t22 -32.5t8 -39.5t-8 -39.5t-22 -32.5
t-32.5 -22t-39.5 -8t-39.5 8t-32.5 22t-22 32.5t-8 39.5z" />
    <glyph glyph-name="AE" unicode="&#xc6;" horiz-adv-x="944" 
d="M477 700h-2l-237 -438h239v438zM477 186h-280l-101 -186h-97l427 752h457v-76h-322v-252h312v-76h-312v-272h322v-76h-406v186z" />
    <glyph glyph-name="Ccedilla" unicode="&#xc7;" horiz-adv-x="833" 
d="M694 508q-14 50 -39 85t-57 56.5t-71 31t-82 9.5q-78 0 -133.5 -27.5t-91 -72.5t-51.5 -101t-16 -113q0 -56 15 -112t49 -101t90 -73t138 -28q106 0 168 56.5t86 151.5l85 -10q-12 -48 -35.5 -97t-64.5 -88.5t-101.5 -64t-146.5 -24.5q-82 0 -150.5 27t-118 77.5t-77 123
t-27.5 162.5q0 85 29 156.5t80.5 123.5t121.5 81t151 29q90 0 150.5 -25t98.5 -62.5t57.5 -81.5t27.5 -83zM364 -87l63 87h48l-46 -62h2q13 5 38 5q32 0 53.5 -22t21.5 -51q0 -25 -11 -43t-28.5 -29t-39 -16.5t-43.5 -5.5q-30 0 -54 8.5t-38 13.5l16 43q12 -8 29 -13.5
t36 -5.5q23 0 39 8.5t16 30.5q0 26 -14.5 34t-29.5 8q-23 0 -41 -11z" />
    <glyph glyph-name="Egrave" unicode="&#xc8;" 
d="M85 752h424v-76h-340v-252h330v-76h-330v-272h340v-76h-424v752zM166 932h108l88 -142h-66z" />
    <glyph glyph-name="Eacute" unicode="&#xc9;" 
d="M85 752h424v-76h-340v-252h330v-76h-330v-272h340v-76h-424v752zM327 932h108l-130 -142h-66z" />
    <glyph glyph-name="Ecircumflex" unicode="&#xca;" 
d="M85 752h424v-76h-340v-252h330v-76h-330v-272h340v-76h-424v752zM277 883l-66 -93h-79l99 142h92l101 -142h-81z" />
    <glyph glyph-name="Edieresis" unicode="&#xcb;" 
d="M85 752h424v-76h-340v-252h330v-76h-330v-272h340v-76h-424v752zM119 852q0 23 16.5 39.5t39.5 16.5t39.5 -16.5t16.5 -39.5t-16.5 -39.5t-39.5 -16.5t-39.5 16.5t-16.5 39.5zM325 852q0 23 16.5 39.5t39.5 16.5t39.5 -16.5t16.5 -39.5t-16.5 -39.5t-39.5 -16.5
t-39.5 16.5t-16.5 39.5z" />
    <glyph glyph-name="Igrave" unicode="&#xcc;" horiz-adv-x="278" 
d="M97 752h84v-752h-84v752zM37 932h108l88 -142h-66z" />
    <glyph glyph-name="Iacute" unicode="&#xcd;" horiz-adv-x="278" 
d="M97 752h84v-752h-84v752zM158 932h108l-130 -142h-66z" />
    <glyph glyph-name="Icircumflex" unicode="&#xce;" horiz-adv-x="278" 
d="M97 752h84v-752h-84v752zM138 883l-66 -93h-79l99 142h92l101 -142h-81z" />
    <glyph glyph-name="Idieresis" unicode="&#xcf;" horiz-adv-x="278" 
d="M97 752h84v-752h-84v752zM-45 852q0 23 16.5 39.5t39.5 16.5t39.5 -16.5t16.5 -39.5t-16.5 -39.5t-39.5 -16.5t-39.5 16.5t-16.5 39.5zM161 852q0 23 16.5 39.5t39.5 16.5t39.5 -16.5t16.5 -39.5t-16.5 -39.5t-39.5 -16.5t-39.5 16.5t-16.5 39.5z" />
    <glyph glyph-name="Eth" unicode="&#xd0;" horiz-adv-x="778" 
d="M342 76q72 0 125 26t88.5 68.5t52.5 97.5t17 113q0 57 -16 110t-52 94t-94 66t-142 25h-144v-243h232v-70h-232v-287h165zM93 363h-59v70h59v319h233q112 0 187 -33.5t120 -86.5t63.5 -119.5t18.5 -132.5q0 -71 -22 -139t-66.5 -121.5t-111.5 -86.5t-157 -33h-265v363z
" />
    <glyph glyph-name="Ntilde" unicode="&#xd1;" horiz-adv-x="778" 
d="M89 752h91l423 -620h2v620h84v-752h-91l-423 620h-2v-620h-84v752zM219 798q6 50 31 80t73 30q21 0 40 -5t37 -12q17 -7 33.5 -14t30.5 -7q24 0 33.5 16t10.5 30h51q-6 -50 -31 -80t-73 -30q-21 0 -40 5t-37 12q-17 7 -33.5 14t-30.5 7q-24 0 -33.5 -16t-10.5 -30h-51z
" />
    <glyph glyph-name="Ograve" unicode="&#xd2;" horiz-adv-x="890" 
d="M63 376q0 85 29 156.5t80.5 123.5t121.5 81t151 29q83 0 153 -27t121 -77.5t79.5 -123t28.5 -162.5q0 -85 -29 -156.5t-80.5 -123.5t-121.5 -81t-151 -29q-83 0 -153 27t-121 77.5t-79.5 123t-28.5 162.5zM737 376q0 57 -16 113t-51.5 101t-91 72.5t-133.5 27.5
t-133.5 -27.5t-91 -72.5t-51.5 -101t-16 -113q0 -47 16 -101.5t51 -102t90.5 -79t134.5 -31.5t134.5 31.5t90.5 79t51 102t16 101.5zM308 932h108l88 -142h-66z" />
    <glyph glyph-name="Oacute" unicode="&#xd3;" horiz-adv-x="890" 
d="M63 376q0 85 29 156.5t80.5 123.5t121.5 81t151 29q83 0 153 -27t121 -77.5t79.5 -123t28.5 -162.5q0 -85 -29 -156.5t-80.5 -123.5t-121.5 -81t-151 -29q-83 0 -153 27t-121 77.5t-79.5 123t-28.5 162.5zM737 376q0 57 -16 113t-51.5 101t-91 72.5t-133.5 27.5
t-133.5 -27.5t-91 -72.5t-51.5 -101t-16 -113q0 -47 16 -101.5t51 -102t90.5 -79t134.5 -31.5t134.5 31.5t90.5 79t51 102t16 101.5zM474 932h108l-130 -142h-66z" />
    <glyph glyph-name="Ocircumflex" unicode="&#xd4;" horiz-adv-x="890" 
d="M63 376q0 85 29 156.5t80.5 123.5t121.5 81t151 29q83 0 153 -27t121 -77.5t79.5 -123t28.5 -162.5q0 -85 -29 -156.5t-80.5 -123.5t-121.5 -81t-151 -29q-83 0 -153 27t-121 77.5t-79.5 123t-28.5 162.5zM737 376q0 57 -16 113t-51.5 101t-91 72.5t-133.5 27.5
t-133.5 -27.5t-91 -72.5t-51.5 -101t-16 -113q0 -47 16 -101.5t51 -102t90.5 -79t134.5 -31.5t134.5 31.5t90.5 79t51 102t16 101.5zM444 883l-66 -93h-79l99 142h92l101 -142h-81z" />
    <glyph glyph-name="Otilde" unicode="&#xd5;" horiz-adv-x="890" 
d="M63 376q0 85 29 156.5t80.5 123.5t121.5 81t151 29q83 0 153 -27t121 -77.5t79.5 -123t28.5 -162.5q0 -85 -29 -156.5t-80.5 -123.5t-121.5 -81t-151 -29q-83 0 -153 27t-121 77.5t-79.5 123t-28.5 162.5zM737 376q0 57 -16 113t-51.5 101t-91 72.5t-133.5 27.5
t-133.5 -27.5t-91 -72.5t-51.5 -101t-16 -113q0 -47 16 -101.5t51 -102t90.5 -79t134.5 -31.5t134.5 31.5t90.5 79t51 102t16 101.5zM275 798q6 50 31 80t73 30q21 0 40 -5t37 -12q17 -7 33.5 -14t30.5 -7q24 0 33.5 16t10.5 30h51q-6 -50 -31 -80t-73 -30q-21 0 -40 5
t-37 12q-17 7 -33.5 14t-30.5 7q-24 0 -33.5 -16t-10.5 -30h-51z" />
    <glyph glyph-name="Odieresis" unicode="&#xd6;" horiz-adv-x="890" 
d="M63 376q0 85 29 156.5t80.5 123.5t121.5 81t151 29q83 0 153 -27t121 -77.5t79.5 -123t28.5 -162.5q0 -85 -29 -156.5t-80.5 -123.5t-121.5 -81t-151 -29q-83 0 -153 27t-121 77.5t-79.5 123t-28.5 162.5zM737 376q0 57 -16 113t-51.5 101t-91 72.5t-133.5 27.5
t-133.5 -27.5t-91 -72.5t-51.5 -101t-16 -113q0 -47 16 -101.5t51 -102t90.5 -79t134.5 -31.5t134.5 31.5t90.5 79t51 102t16 101.5zM286 852q0 23 16.5 39.5t39.5 16.5t39.5 -16.5t16.5 -39.5t-16.5 -39.5t-39.5 -16.5t-39.5 16.5t-16.5 39.5zM492 852q0 23 16.5 39.5
t39.5 16.5t39.5 -16.5t16.5 -39.5t-16.5 -39.5t-39.5 -16.5t-39.5 16.5t-16.5 39.5z" />
    <glyph glyph-name="multiply" unicode="&#xd7;" horiz-adv-x="600" 
d="M73 439l41 41l185 -187l187 187l41 -41l-187 -186l187 -186l-41 -41l-187 187l-185 -187l-41 41l186 186z" />
    <glyph glyph-name="Oslash" unicode="&#xd8;" horiz-adv-x="890" 
d="M151 114q-42 49 -65 115t-23 147q0 85 29 156.5t80.5 123.5t121.5 81t151 29q79 0 145.5 -24t116.5 -70l89 90l33 -34l-89 -90q42 -51 64.5 -116t22.5 -146q0 -85 -29 -156.5t-80.5 -123.5t-121.5 -81t-151 -29q-79 0 -145.5 24t-116.5 70l-89 -90l-33 34zM246 143
q35 -36 84 -58.5t115 -22.5q79 0 134.5 31.5t90.5 79t51 102t16 101.5q0 54 -14 106.5t-44 94.5zM648 613q-35 35 -85 56t-118 21q-78 0 -133.5 -27.5t-91 -72.5t-51.5 -101t-16 -113q0 -46 15 -98.5t48 -98.5z" />
    <glyph glyph-name="Ugrave" unicode="&#xd9;" horiz-adv-x="722" 
d="M85 752h84v-490q0 -51 14 -89t39 -62.5t60.5 -36.5t78.5 -12q39 0 74 12.5t61.5 38.5t41.5 67.5t15 98.5v473h84v-474q0 -74 -21.5 -129t-59 -91t-88 -54t-107.5 -18q-69 0 -120.5 19t-86 54t-52 83t-17.5 107v503zM229 932h108l88 -142h-66z" />
    <glyph glyph-name="Uacute" unicode="&#xda;" horiz-adv-x="722" 
d="M85 752h84v-490q0 -51 14 -89t39 -62.5t60.5 -36.5t78.5 -12q39 0 74 12.5t61.5 38.5t41.5 67.5t15 98.5v473h84v-474q0 -74 -21.5 -129t-59 -91t-88 -54t-107.5 -18q-69 0 -120.5 19t-86 54t-52 83t-17.5 107v503zM390 932h108l-130 -142h-66z" />
    <glyph glyph-name="Ucircumflex" unicode="&#xdb;" horiz-adv-x="722" 
d="M85 752h84v-490q0 -51 14 -89t39 -62.5t60.5 -36.5t78.5 -12q39 0 74 12.5t61.5 38.5t41.5 67.5t15 98.5v473h84v-474q0 -74 -21.5 -129t-59 -91t-88 -54t-107.5 -18q-69 0 -120.5 19t-86 54t-52 83t-17.5 107v503zM360 883l-66 -93h-79l99 142h92l101 -142h-81z" />
    <glyph glyph-name="Udieresis" unicode="&#xdc;" horiz-adv-x="722" 
d="M85 752h84v-490q0 -51 14 -89t39 -62.5t60.5 -36.5t78.5 -12q39 0 74 12.5t61.5 38.5t41.5 67.5t15 98.5v473h84v-474q0 -74 -21.5 -129t-59 -91t-88 -54t-107.5 -18q-69 0 -120.5 19t-86 54t-52 83t-17.5 107v503zM202 852q0 23 16.5 39.5t39.5 16.5t39.5 -16.5
t16.5 -39.5t-16.5 -39.5t-39.5 -16.5t-39.5 16.5t-16.5 39.5zM408 852q0 23 16.5 39.5t39.5 16.5t39.5 -16.5t16.5 -39.5t-16.5 -39.5t-39.5 -16.5t-39.5 16.5t-16.5 39.5z" />
    <glyph glyph-name="Yacute" unicode="&#xdd;" horiz-adv-x="612" 
d="M266 307l-259 445h103l198 -370l194 370h103l-255 -445v-307h-84v307zM330 932h108l-130 -142h-66z" />
    <glyph glyph-name="Thorn" unicode="&#xde;" horiz-adv-x="611" 
d="M299 230q36 0 69 8t57.5 26.5t39.5 48t15 72.5q0 41 -13 70.5t-36 48t-55 27.5t-70 9h-137v-310h130zM85 752h84v-136h155q116 0 181 -61.5t65 -170.5q0 -56 -19 -99t-50.5 -72t-73.5 -44t-88 -15h-170v-154h-84v752z" />
    <glyph glyph-name="germandbls" unicode="&#xdf;" 
d="M216 72q10 -2 23.5 -5t32.5 -3q23 0 48.5 9.5t47 30t35.5 53.5t14 80q0 36 -11.5 64t-32.5 47.5t-49.5 30t-62.5 10.5h-27v70h34q52 0 85.5 30t33.5 88q0 53 -30 86t-92 33q-53 0 -82.5 -36.5t-29.5 -100.5v-559h-78v569q0 40 11.5 76t36 63t61.5 42.5t88 15.5
q32 0 66 -10t62.5 -32t46.5 -55.5t18 -80.5q0 -54 -24 -98t-83 -63v-2q13 -3 37 -12t47.5 -30t41 -58t17.5 -95q0 -46 -15.5 -88.5t-44 -75.5t-69.5 -52.5t-91 -19.5q-17 0 -34 2.5t-31 5.5v70z" />
    <glyph glyph-name="agrave" unicode="&#xe0;" 
d="M399 237l-132 -6q-64 -3 -99.5 -23t-35.5 -69q0 -38 30 -63.5t84 -25.5q25 0 52.5 7.5t49.5 22.5t36.5 38.5t14.5 56.5v62zM399 66h-2q-13 -23 -33 -38.5t-42.5 -24.5t-46.5 -13t-46 -4q-45 0 -78.5 12t-56.5 32.5t-34.5 47.5t-11.5 57q0 34 10 61.5t32 47t58 30.5t87 14
q42 2 82 4t82 4v38q0 24 -6 45t-20 37t-39 25t-62 9q-35 0 -58.5 -7t-38.5 -19.5t-23 -30t-12 -38.5h-77q12 84 66.5 121.5t143.5 37.5q101 0 152.5 -43.5t51.5 -124.5v-248q0 -23 2.5 -50t4.5 -48h-85v66zM146 740h108l88 -142h-66z" />
    <glyph glyph-name="aacute" unicode="&#xe1;" 
d="M399 237l-132 -6q-64 -3 -99.5 -23t-35.5 -69q0 -38 30 -63.5t84 -25.5q25 0 52.5 7.5t49.5 22.5t36.5 38.5t14.5 56.5v62zM399 66h-2q-13 -23 -33 -38.5t-42.5 -24.5t-46.5 -13t-46 -4q-45 0 -78.5 12t-56.5 32.5t-34.5 47.5t-11.5 57q0 34 10 61.5t32 47t58 30.5t87 14
q42 2 82 4t82 4v38q0 24 -6 45t-20 37t-39 25t-62 9q-35 0 -58.5 -7t-38.5 -19.5t-23 -30t-12 -38.5h-77q12 84 66.5 121.5t143.5 37.5q101 0 152.5 -43.5t51.5 -124.5v-248q0 -23 2.5 -50t4.5 -48h-85v66zM302 740h108l-130 -142h-66z" />
    <glyph glyph-name="acircumflex" unicode="&#xe2;" 
d="M399 237l-132 -6q-64 -3 -99.5 -23t-35.5 -69q0 -38 30 -63.5t84 -25.5q25 0 52.5 7.5t49.5 22.5t36.5 38.5t14.5 56.5v62zM399 66h-2q-13 -23 -33 -38.5t-42.5 -24.5t-46.5 -13t-46 -4q-45 0 -78.5 12t-56.5 32.5t-34.5 47.5t-11.5 57q0 34 10 61.5t32 47t58 30.5t87 14
q42 2 82 4t82 4v38q0 24 -6 45t-20 37t-39 25t-62 9q-35 0 -58.5 -7t-38.5 -19.5t-23 -30t-12 -38.5h-77q12 84 66.5 121.5t143.5 37.5q101 0 152.5 -43.5t51.5 -124.5v-248q0 -23 2.5 -50t4.5 -48h-85v66zM277 691l-66 -93h-79l99 142h92l101 -142h-81z" />
    <glyph glyph-name="atilde" unicode="&#xe3;" 
d="M399 237l-132 -6q-64 -3 -99.5 -23t-35.5 -69q0 -38 30 -63.5t84 -25.5q25 0 52.5 7.5t49.5 22.5t36.5 38.5t14.5 56.5v62zM399 66h-2q-13 -23 -33 -38.5t-42.5 -24.5t-46.5 -13t-46 -4q-45 0 -78.5 12t-56.5 32.5t-34.5 47.5t-11.5 57q0 34 10 61.5t32 47t58 30.5t87 14
q42 2 82 4t82 4v38q0 24 -6 45t-20 37t-39 25t-62 9q-35 0 -58.5 -7t-38.5 -19.5t-23 -30t-12 -38.5h-77q12 84 66.5 121.5t143.5 37.5q101 0 152.5 -43.5t51.5 -124.5v-248q0 -23 2.5 -50t4.5 -48h-85v66zM108 606q6 50 31 80t73 30q21 0 40 -5t37 -12q17 -7 33.5 -14
t30.5 -7q24 0 33.5 16t10.5 30h51q-6 -50 -31 -80t-73 -30q-21 0 -40 5t-37 12q-17 7 -33.5 14t-30.5 7q-24 0 -33.5 -16t-10.5 -30h-51z" />
    <glyph glyph-name="adieresis" unicode="&#xe4;" 
d="M399 237l-132 -6q-64 -3 -99.5 -23t-35.5 -69q0 -38 30 -63.5t84 -25.5q25 0 52.5 7.5t49.5 22.5t36.5 38.5t14.5 56.5v62zM399 66h-2q-13 -23 -33 -38.5t-42.5 -24.5t-46.5 -13t-46 -4q-45 0 -78.5 12t-56.5 32.5t-34.5 47.5t-11.5 57q0 34 10 61.5t32 47t58 30.5t87 14
q42 2 82 4t82 4v38q0 24 -6 45t-20 37t-39 25t-62 9q-35 0 -58.5 -7t-38.5 -19.5t-23 -30t-12 -38.5h-77q12 84 66.5 121.5t143.5 37.5q101 0 152.5 -43.5t51.5 -124.5v-248q0 -23 2.5 -50t4.5 -48h-85v66zM119 660q0 23 16.5 39.5t39.5 16.5t39.5 -16.5t16.5 -39.5
t-16.5 -39.5t-39.5 -16.5t-39.5 16.5t-16.5 39.5zM325 660q0 23 16.5 39.5t39.5 16.5t39.5 -16.5t16.5 -39.5t-16.5 -39.5t-39.5 -16.5t-39.5 16.5t-16.5 39.5z" />
    <glyph glyph-name="aring" unicode="&#xe5;" 
d="M399 237l-132 -6q-64 -3 -99.5 -23t-35.5 -69q0 -38 30 -63.5t84 -25.5q25 0 52.5 7.5t49.5 22.5t36.5 38.5t14.5 56.5v62zM399 66h-2q-13 -23 -33 -38.5t-42.5 -24.5t-46.5 -13t-46 -4q-45 0 -78.5 12t-56.5 32.5t-34.5 47.5t-11.5 57q0 34 10 61.5t32 47t58 30.5t87 14
q42 2 82 4t82 4v38q0 24 -6 45t-20 37t-39 25t-62 9q-35 0 -58.5 -7t-38.5 -19.5t-23 -30t-12 -38.5h-77q12 84 66.5 121.5t143.5 37.5q101 0 152.5 -43.5t51.5 -124.5v-248q0 -23 2.5 -50t4.5 -48h-85v66zM340 684q0 26 -18 44t-44 18t-44 -18t-18 -44t18 -44t44 -18t44 18
t18 44zM176 684q0 21 8 39.5t22 32.5t32.5 22t39.5 8t39.5 -8t32.5 -22t22 -32.5t8 -39.5t-8 -39.5t-22 -32.5t-32.5 -22t-39.5 -8t-39.5 8t-32.5 22t-22 32.5t-8 39.5z" />
    <glyph glyph-name="ae" unicode="&#xe6;" horiz-adv-x="889" 
d="M757 296q-5 69 -42.5 108.5t-97.5 39.5q-38 0 -64 -13t-44 -34t-28 -47.5t-15 -53.5h291zM387 232q-30 0 -51 -0.5t-38 -1.5t-31 -2.5t-30 -2.5q-48 -5 -76.5 -25.5t-28.5 -61.5q0 -42 27.5 -62t75.5 -20q152 0 152 157v19zM387 313q0 28 -6 52.5t-20.5 41.5t-38.5 27
t-59 10q-55 0 -83.5 -22.5t-37.5 -67.5l-78 2q5 31 19 59.5t38 50.5t60 35t85 13q67 0 108 -24.5t59 -72.5q10 17 26 34t39 31t54 23t71 9q43 0 82.5 -14.5t69.5 -46t48 -81.5t18 -120v-20h-376q0 -31 6 -62t22.5 -56.5t45.5 -41.5t74 -16q65 0 97 31t46 81l81 -9
q-11 -33 -30 -64.5t-46.5 -55.5t-63 -38.5t-80.5 -14.5q-41 0 -71 7t-53 20.5t-41 33.5t-34 45q-27 -48 -72.5 -77t-121.5 -29q-52 0 -86 14t-54 35t-28 46.5t-8 49.5q0 68 42.5 110t127.5 49q40 3 81 4t88 2v17z" />
    <glyph glyph-name="ccedilla" unicode="&#xe7;" 
d="M443 333q-5 14 -13.5 33t-24 36.5t-39 29.5t-59.5 12q-37 0 -69 -14t-55.5 -39.5t-37 -62t-13.5 -81.5q0 -37 10 -71.5t30.5 -61t53 -42.5t77.5 -16q32 0 55.5 10t40 26.5t27.5 37.5t17 42l83 -10q-10 -32 -27 -63.5t-44 -56.5t-64.5 -40.5t-88.5 -15.5
q-62 0 -109.5 21.5t-79.5 57.5t-48.5 83.5t-16.5 99.5q0 63 21 112t56 83.5t81.5 52.5t96.5 18q41 0 77.5 -10.5t66 -31.5t49 -53.5t27.5 -77.5zM225 -87l63 87h48l-46 -62h2q13 5 38 5q32 0 53.5 -22t21.5 -51q0 -25 -11 -43t-28.5 -29t-39 -16.5t-43.5 -5.5q-30 0 -54 8.5
t-38 13.5l16 43q12 -8 29 -13.5t36 -5.5q23 0 39 8.5t16 30.5q0 26 -14.5 34t-29.5 8q-23 0 -41 -11z" />
    <glyph glyph-name="egrave" unicode="&#xe8;" 
d="M442 296q-8 69 -46.5 108.5t-106.5 39.5q-38 0 -66.5 -13.5t-47 -35t-29 -48t-12.5 -51.5h308zM513 141q-32 -71 -88 -113t-142 -42q-53 0 -96 18.5t-74 51.5t-48 78t-17 97q0 63 16.5 115t47.5 89.5t75.5 58t99.5 20.5q53 0 97 -16.5t75.5 -49.5t49 -81.5t17.5 -112.5
v-22h-394q0 -44 12.5 -76.5t33.5 -55t49 -33.5t60 -11q34 0 58.5 9.5t42 23.5t28.5 31.5t17 32.5zM146 740h108l88 -142h-66z" />
    <glyph glyph-name="eacute" unicode="&#xe9;" 
d="M442 296q-8 69 -46.5 108.5t-106.5 39.5q-38 0 -66.5 -13.5t-47 -35t-29 -48t-12.5 -51.5h308zM513 141q-32 -71 -88 -113t-142 -42q-53 0 -96 18.5t-74 51.5t-48 78t-17 97q0 63 16.5 115t47.5 89.5t75.5 58t99.5 20.5q53 0 97 -16.5t75.5 -49.5t49 -81.5t17.5 -112.5
v-22h-394q0 -44 12.5 -76.5t33.5 -55t49 -33.5t60 -11q34 0 58.5 9.5t42 23.5t28.5 31.5t17 32.5zM302 740h108l-130 -142h-66z" />
    <glyph glyph-name="ecircumflex" unicode="&#xea;" 
d="M442 296q-8 69 -46.5 108.5t-106.5 39.5q-38 0 -66.5 -13.5t-47 -35t-29 -48t-12.5 -51.5h308zM513 141q-32 -71 -88 -113t-142 -42q-53 0 -96 18.5t-74 51.5t-48 78t-17 97q0 63 16.5 115t47.5 89.5t75.5 58t99.5 20.5q53 0 97 -16.5t75.5 -49.5t49 -81.5t17.5 -112.5
v-22h-394q0 -44 12.5 -76.5t33.5 -55t49 -33.5t60 -11q34 0 58.5 9.5t42 23.5t28.5 31.5t17 32.5zM277 691l-66 -93h-79l99 142h92l101 -142h-81z" />
    <glyph glyph-name="edieresis" unicode="&#xeb;" 
d="M442 296q-8 69 -46.5 108.5t-106.5 39.5q-38 0 -66.5 -13.5t-47 -35t-29 -48t-12.5 -51.5h308zM513 141q-32 -71 -88 -113t-142 -42q-53 0 -96 18.5t-74 51.5t-48 78t-17 97q0 63 16.5 115t47.5 89.5t75.5 58t99.5 20.5q53 0 97 -16.5t75.5 -49.5t49 -81.5t17.5 -112.5
v-22h-394q0 -44 12.5 -76.5t33.5 -55t49 -33.5t60 -11q34 0 58.5 9.5t42 23.5t28.5 31.5t17 32.5zM119 660q0 23 16.5 39.5t39.5 16.5t39.5 -16.5t16.5 -39.5t-16.5 -39.5t-39.5 -16.5t-39.5 16.5t-16.5 39.5zM325 660q0 23 16.5 39.5t39.5 16.5t39.5 -16.5t16.5 -39.5
t-16.5 -39.5t-39.5 -16.5t-39.5 16.5t-16.5 39.5z" />
    <glyph glyph-name="igrave" unicode="&#xec;" horiz-adv-x="222" 
d="M72 500h78v-500h-78v500zM-20 740h108l88 -142h-66z" />
    <glyph glyph-name="iacute" unicode="&#xed;" horiz-adv-x="222" 
d="M72 500h78v-500h-78v500zM135 740h108l-130 -142h-66z" />
    <glyph glyph-name="icircumflex" unicode="&#xee;" horiz-adv-x="222" 
d="M72 500h78v-500h-78v500zM110 691l-66 -93h-79l99 142h92l101 -142h-81z" />
    <glyph glyph-name="idieresis" unicode="&#xef;" horiz-adv-x="222" 
d="M72 500h78v-500h-78v500zM-48 660q0 23 16.5 39.5t39.5 16.5t39.5 -16.5t16.5 -39.5t-16.5 -39.5t-39.5 -16.5t-39.5 16.5t-16.5 39.5zM158 660q0 23 16.5 39.5t39.5 16.5t39.5 -16.5t16.5 -39.5t-16.5 -39.5t-39.5 -16.5t-39.5 16.5t-16.5 39.5z" />
    <glyph glyph-name="eth" unicode="&#xf0;" horiz-adv-x="612" 
d="M172 614l112 61q-25 19 -53.5 35t-60.5 30l55 44q35 -15 66 -33.5t59 -39.5l114 63l38 -36l-112 -61q85 -75 129.5 -178.5t44.5 -230.5q0 -57 -15.5 -108t-47 -89.5t-80 -61.5t-115.5 -23q-68 0 -116.5 22.5t-80 59.5t-46.5 84.5t-15 97.5t16.5 97.5t49.5 84.5t81 59.5
t111 22.5q98 0 159 -78h2q-29 65 -63 115.5t-79 90.5l-115 -62zM480 250q0 42 -12 78t-34.5 61.5t-55 40t-72.5 14.5q-41 0 -73 -14.5t-54.5 -40t-34.5 -61.5t-12 -78t12 -78t34.5 -61.5t54.5 -40t73 -14.5q40 0 72.5 14.5t55 40t34.5 61.5t12 78z" />
    <glyph glyph-name="ntilde" unicode="&#xf1;" 
d="M403 302q0 39 -9.5 65t-24.5 42t-35 22.5t-41 6.5q-27 0 -52.5 -10.5t-45 -30.5t-31 -50t-11.5 -69v-278h-78v500h78v-85h2q26 48 65.5 70.5t93.5 22.5q22 0 51 -7t55 -26t43.5 -52.5t17.5 -86.5v-336h-78v302zM108 606q6 50 31 80t73 30q21 0 40 -5t37 -12
q17 -7 33.5 -14t30.5 -7q24 0 33.5 16t10.5 30h51q-6 -50 -31 -80t-73 -30q-21 0 -40 5t-37 12q-17 7 -33.5 14t-30.5 7q-24 0 -33.5 -16t-10.5 -30h-51z" />
    <glyph glyph-name="ograve" unicode="&#xf2;" horiz-adv-x="612" 
d="M132 250q0 -42 12 -78t34.5 -61.5t54.5 -40t73 -14.5q40 0 72.5 14.5t55 40t34.5 61.5t12 78t-12 78t-34.5 61.5t-55 40t-72.5 14.5q-41 0 -73 -14.5t-54.5 -40t-34.5 -61.5t-12 -78zM564 250q0 -50 -16.5 -97.5t-49.5 -84.5t-81 -59.5t-111 -22.5q-68 0 -116.5 22.5
t-80 59.5t-46.5 84.5t-15 97.5t16.5 97.5t49.5 84.5t81 59.5t111 22.5q68 0 116.5 -22.5t80 -59.5t46.5 -84.5t15 -97.5zM174 740h108l88 -142h-66z" />
    <glyph glyph-name="oacute" unicode="&#xf3;" horiz-adv-x="612" 
d="M132 250q0 -42 12 -78t34.5 -61.5t54.5 -40t73 -14.5q40 0 72.5 14.5t55 40t34.5 61.5t12 78t-12 78t-34.5 61.5t-55 40t-72.5 14.5q-41 0 -73 -14.5t-54.5 -40t-34.5 -61.5t-12 -78zM564 250q0 -50 -16.5 -97.5t-49.5 -84.5t-81 -59.5t-111 -22.5q-68 0 -116.5 22.5
t-80 59.5t-46.5 84.5t-15 97.5t16.5 97.5t49.5 84.5t81 59.5t111 22.5q68 0 116.5 -22.5t80 -59.5t46.5 -84.5t15 -97.5zM330 740h108l-130 -142h-66z" />
    <glyph glyph-name="ocircumflex" unicode="&#xf4;" horiz-adv-x="612" 
d="M132 250q0 -42 12 -78t34.5 -61.5t54.5 -40t73 -14.5q40 0 72.5 14.5t55 40t34.5 61.5t12 78t-12 78t-34.5 61.5t-55 40t-72.5 14.5q-41 0 -73 -14.5t-54.5 -40t-34.5 -61.5t-12 -78zM564 250q0 -50 -16.5 -97.5t-49.5 -84.5t-81 -59.5t-111 -22.5q-68 0 -116.5 22.5
t-80 59.5t-46.5 84.5t-15 97.5t16.5 97.5t49.5 84.5t81 59.5t111 22.5q68 0 116.5 -22.5t80 -59.5t46.5 -84.5t15 -97.5zM305 691l-66 -93h-79l99 142h92l101 -142h-81z" />
    <glyph glyph-name="otilde" unicode="&#xf5;" horiz-adv-x="612" 
d="M132 250q0 -42 12 -78t34.5 -61.5t54.5 -40t73 -14.5q40 0 72.5 14.5t55 40t34.5 61.5t12 78t-12 78t-34.5 61.5t-55 40t-72.5 14.5q-41 0 -73 -14.5t-54.5 -40t-34.5 -61.5t-12 -78zM564 250q0 -50 -16.5 -97.5t-49.5 -84.5t-81 -59.5t-111 -22.5q-68 0 -116.5 22.5
t-80 59.5t-46.5 84.5t-15 97.5t16.5 97.5t49.5 84.5t81 59.5t111 22.5q68 0 116.5 -22.5t80 -59.5t46.5 -84.5t15 -97.5zM136 606q6 50 31 80t73 30q21 0 40 -5t37 -12q17 -7 33.5 -14t30.5 -7q24 0 33.5 16t10.5 30h51q-6 -50 -31 -80t-73 -30q-21 0 -40 5t-37 12
q-17 7 -33.5 14t-30.5 7q-24 0 -33.5 -16t-10.5 -30h-51z" />
    <glyph glyph-name="odieresis" unicode="&#xf6;" horiz-adv-x="612" 
d="M132 250q0 -42 12 -78t34.5 -61.5t54.5 -40t73 -14.5q40 0 72.5 14.5t55 40t34.5 61.5t12 78t-12 78t-34.5 61.5t-55 40t-72.5 14.5q-41 0 -73 -14.5t-54.5 -40t-34.5 -61.5t-12 -78zM564 250q0 -50 -16.5 -97.5t-49.5 -84.5t-81 -59.5t-111 -22.5q-68 0 -116.5 22.5
t-80 59.5t-46.5 84.5t-15 97.5t16.5 97.5t49.5 84.5t81 59.5t111 22.5q68 0 116.5 -22.5t80 -59.5t46.5 -84.5t15 -97.5zM147 660q0 23 16.5 39.5t39.5 16.5t39.5 -16.5t16.5 -39.5t-16.5 -39.5t-39.5 -16.5t-39.5 16.5t-16.5 39.5zM353 660q0 23 16.5 39.5t39.5 16.5
t39.5 -16.5t16.5 -39.5t-16.5 -39.5t-39.5 -16.5t-39.5 16.5t-16.5 39.5z" />
    <glyph glyph-name="divide" unicode="&#xf7;" horiz-adv-x="600" 
d="M241 47q0 25 17 42t42 17t42 -17t17 -42t-17 -42t-42 -17t-42 17t-17 42zM241 459q0 25 17 42t42 17t42 -17t17 -42t-17 -42t-42 -17t-42 17t-17 42zM47 282h506v-58h-506v58z" />
    <glyph glyph-name="oslash" unicode="&#xf8;" horiz-adv-x="612" 
d="M98 83q-26 36 -38 79t-12 88q0 50 16.5 97.5t49.5 84.5t81 59.5t111 22.5q59 0 103 -16.5t75 -45.5l65 62l33 -32l-68 -65q26 -35 38 -78.5t12 -88.5q0 -50 -16.5 -97.5t-49.5 -84.5t-81 -59.5t-111 -22.5q-60 0 -104 17t-73 46l-66 -63l-33 32zM426 396q-45 48 -120 48
q-41 0 -73 -14.5t-54.5 -40t-34.5 -61.5t-12 -78q0 -64 26 -110zM186 103q47 -47 120 -47q40 0 72.5 14.5t55 40t34.5 61.5t12 78q0 65 -27 109z" />
    <glyph glyph-name="ugrave" unicode="&#xf9;" 
d="M403 79h-2q-26 -48 -65.5 -70.5t-93.5 -22.5q-27 0 -56.5 8t-54 29t-40.5 56.5t-16 91.5v329h78v-308q0 -39 9.5 -65t24.5 -42t35 -22.5t41 -6.5q27 0 52.5 10.5t45 30.5t31 50t11.5 69v284h78v-500h-78v79zM146 740h108l88 -142h-66z" />
    <glyph glyph-name="uacute" unicode="&#xfa;" 
d="M403 79h-2q-26 -48 -65.5 -70.5t-93.5 -22.5q-27 0 -56.5 8t-54 29t-40.5 56.5t-16 91.5v329h78v-308q0 -39 9.5 -65t24.5 -42t35 -22.5t41 -6.5q27 0 52.5 10.5t45 30.5t31 50t11.5 69v284h78v-500h-78v79zM302 740h108l-130 -142h-66z" />
    <glyph glyph-name="ucircumflex" unicode="&#xfb;" 
d="M403 79h-2q-26 -48 -65.5 -70.5t-93.5 -22.5q-27 0 -56.5 8t-54 29t-40.5 56.5t-16 91.5v329h78v-308q0 -39 9.5 -65t24.5 -42t35 -22.5t41 -6.5q27 0 52.5 10.5t45 30.5t31 50t11.5 69v284h78v-500h-78v79zM277 691l-66 -93h-79l99 142h92l101 -142h-81z" />
    <glyph glyph-name="udieresis" unicode="&#xfc;" 
d="M403 79h-2q-26 -48 -65.5 -70.5t-93.5 -22.5q-27 0 -56.5 8t-54 29t-40.5 56.5t-16 91.5v329h78v-308q0 -39 9.5 -65t24.5 -42t35 -22.5t41 -6.5q27 0 52.5 10.5t45 30.5t31 50t11.5 69v284h78v-500h-78v79zM119 660q0 23 16.5 39.5t39.5 16.5t39.5 -16.5t16.5 -39.5
t-16.5 -39.5t-39.5 -16.5t-39.5 16.5t-16.5 39.5zM325 660q0 23 16.5 39.5t39.5 16.5t39.5 -16.5t16.5 -39.5t-16.5 -39.5t-39.5 -16.5t-39.5 16.5t-16.5 39.5z" />
    <glyph glyph-name="yacute" unicode="&#xfd;" horiz-adv-x="500" 
d="M211 10l-203 490h89l153 -414h2l154 414h86l-292 -710h-85zM274 740h108l-130 -142h-66z" />
    <glyph glyph-name="thorn" unicode="&#xfe;" horiz-adv-x="611" 
d="M75 752h78v-339h2q8 12 21 28.5t34 31t50.5 25t71.5 10.5q39 0 80 -14.5t74.5 -45.5t55 -80t21.5 -118q0 -59 -18.5 -107.5t-50.5 -83t-76 -54t-96 -19.5q-33 0 -59.5 8.5t-47.5 22t-36 30.5t-24 34h-2v-291h-78v962zM479 248q0 49 -13 85t-35.5 59.5t-52 34.5t-61.5 11
q-31 0 -60.5 -11.5t-52.5 -35.5t-37 -60t-14 -85q0 -39 11.5 -74t33 -60.5t52.5 -40.5t70 -15t69 15.5t50 41.5t30 61t10 74z" />
    <glyph glyph-name="ydieresis" unicode="&#xff;" horiz-adv-x="500" 
d="M211 10l-203 490h89l153 -414h2l154 414h86l-292 -710h-85zM91 660q0 23 16.5 39.5t39.5 16.5t39.5 -16.5t16.5 -39.5t-16.5 -39.5t-39.5 -16.5t-39.5 16.5t-16.5 39.5zM297 660q0 23 16.5 39.5t39.5 16.5t39.5 -16.5t16.5 -39.5t-16.5 -39.5t-39.5 -16.5t-39.5 16.5
t-16.5 39.5z" />
    <glyph glyph-name="exclam" unicode="!" horiz-adv-x="334" 
d="M111 44q0 23 16.5 39.5t39.5 16.5t39.5 -16.5t16.5 -39.5t-16.5 -39.5t-39.5 -16.5t-39.5 16.5t-16.5 39.5zM128 752h78v-581h-78v581z" />
    <glyph glyph-name="fraction" unicode="&#x2215;" horiz-adv-x="167" 
d="M281 752h67l-462 -764h-67z" />
    <glyph glyph-name="fi" unicode="&#xfb01;" 
d="M445 634q-25 0 -42 17t-17 42t17 42t42 17t42 -17t17 -42t-17 -42t-42 -17zM406 500h78v-500h-78v500zM124 436h-93v64h93v143q0 30 10 51t27 33.5t38.5 18.5t44.5 6q17 0 32.5 -0.5t26.5 -2.5v-76q-10 2 -22 2.5t-25 0.5q-30 0 -42 -13.5t-12 -36.5v-126h101v-64h-101
v-436h-78v436z" />
    <glyph glyph-name="fl" unicode="&#xfb02;" 
d="M406 752h78v-752h-78v752zM124 436h-93v64h93v143q0 30 10 51t27 33.5t38.5 18.5t44.5 6q17 0 32.5 -0.5t26.5 -2.5v-76q-10 2 -22 2.5t-25 0.5q-30 0 -42 -13.5t-12 -36.5v-126h101v-64h-101v-436h-78v436z" />
    <glyph glyph-name="breve" unicode="&#x2d8;" horiz-adv-x="222" 
d="M3 740q3 -32 31.5 -55t76.5 -23t76.5 23t31.5 55h46q-3 -62 -41 -99t-113 -37t-113 37t-41 99h46z" />
    <glyph glyph-name="dotaccent" unicode="&#x2d9;" horiz-adv-x="222" 
d="M55 660q0 23 16.5 39.5t39.5 16.5t39.5 -16.5t16.5 -39.5t-16.5 -39.5t-39.5 -16.5t-39.5 16.5t-16.5 39.5z" />
    <glyph glyph-name="ring" unicode="&#x2da;" horiz-adv-x="222" 
d="M173 684q0 26 -18 44t-44 18t-44 -18t-18 -44t18 -44t44 -18t44 18t18 44zM9 684q0 21 8 39.5t22 32.5t32.5 22t39.5 8t39.5 -8t32.5 -22t22 -32.5t8 -39.5t-8 -39.5t-22 -32.5t-32.5 -22t-39.5 -8t-39.5 8t-32.5 22t-22 32.5t-8 39.5z" />
    <glyph glyph-name="hungarumlaut" unicode="&#x2dd;" horiz-adv-x="222" 
d="M19 740h108l-130 -142h-66zM191 740h108l-130 -142h-66z" />
    <glyph glyph-name="ogonek" unicode="&#x2db;" horiz-adv-x="222" 
d="M191 0q-36 -35 -57.5 -65t-21.5 -57q0 -30 16 -43t36 -13q23 0 42 8l8 -41q-6 -3 -14.5 -5t-18.5 -4t-19 -3t-16 -1q-19 0 -38.5 5.5t-36 16.5t-27 29t-10.5 43q0 36 30.5 66.5t78.5 63.5h48z" />
    <glyph glyph-name="caron" unicode="&#x2c7;" horiz-adv-x="222" 
d="M-35 740h81l66 -93l66 93h79l-99 -142h-92z" />
    <glyph glyph-name="Lslash" unicode="&#x141;" 
d="M85 300l-85 -51v76l85 52v375h84v-324l203 121v-76l-203 -121v-276h352v-76h-436v300z" />
    <glyph glyph-name="dotlessi" unicode="&#x131;" horiz-adv-x="222" 
d="M72 500h78v-500h-78v500z" />
    <glyph glyph-name="lslash" unicode="&#x142;" horiz-adv-x="222" 
d="M72 348l-73 -44v60l73 44v344h78v-296l73 44v-60l-73 -44v-396h-78v348z" />
    <glyph glyph-name="minus" unicode="&#x2212;" horiz-adv-x="600" 
d="M47 282h506v-58h-506v58z" />
    <glyph glyph-name="nonbreakingspace" horiz-adv-x="278" 
 />
    </font>
</defs>
</svg>
